<svg width="100" height="100" viewBox="0 0 100 100" fill="none" xmlns="http://www.w3.org/2000/svg">
<g clip-path="url(#clip0_1_1639)">
<path d="M68.8221 90.8399L69.2182 90.6853L69.4216 90.6039C69.0907 90.7314 68.757 90.8562 68.418 90.9755L68.8221 90.8399Z" fill="#FCE6FE"/>
<path d="M99.5661 59.2416C99.5553 59.2741 99.5553 59.2931 99.5471 59.3257C99.6231 59.4098 99.6855 59.4884 99.7316 59.5589L99.5661 59.2416Z" fill="#FCE6FE"/>
<path d="M94.3472 27.4373C94.3987 27.4861 94.4502 27.5403 94.5072 27.619C94.4475 27.5105 94.396 27.4644 94.3472 27.4373Z" fill="#FCE6FE"/>
<path d="M16.7093 47.67C16.7066 47.6294 16.6984 47.5887 16.6984 47.548C16.693 47.6104 16.6984 47.6483 16.7093 47.67Z" fill="#FCE6FE"/>
<path d="M75.2266 87.4519L75.1045 87.5957C75.1615 87.5414 75.1994 87.4953 75.2266 87.4519Z" fill="#FCE6FE"/>
<path d="M99.5714 50.1113C99.5904 49.8536 99.6121 49.6067 99.6528 49.4006L99.8128 49.4331C99.9376 48.8472 100.014 48.283 100 47.7242C99.9864 47.1654 99.9294 46.6175 99.8535 46.0587C99.6609 44.9412 99.3924 43.7938 99.1618 42.4456L99.5334 42.7549C99.7179 41.7757 99.0235 42.5704 98.9909 41.4502L99.3761 41.3254C98.6708 40.4547 99.273 40.0505 99.3028 39.3344L98.8634 39.7575L98.679 38.4881C98.6057 37.7801 98.7034 37.5278 98.8688 37.4682C99.0343 37.4058 99.2757 37.5387 99.4331 37.6065C99.216 37.3271 98.9882 37.0531 98.7685 36.7792L99.1591 36.4645C98.4375 35.9383 99.0641 35.743 98.3779 34.6499C98.5108 34.4952 98.7088 34.7611 98.641 34.3325L97.9981 33.4672L97.3146 32.6344C97.5533 32.9816 97.8082 33.3234 98.0334 33.6815L97.3498 33.7791C96.8806 33.2773 96.7368 32.8786 96.65 32.4988C96.5605 32.1218 96.5334 31.761 96.254 31.3894C96.4004 31.5521 96.5551 31.7095 96.6907 31.8804C95.9393 30.5919 96.159 30.4047 95.942 29.572C95.942 29.865 95.9366 30.3098 95.6084 29.8026C95.3724 29.4282 95.7115 29.4825 95.5867 29.0783C95.3643 29.138 95.0767 28.9617 94.8136 28.6552C94.5532 28.3459 94.3172 27.9038 94.1599 27.4427C94.2223 27.421 94.2847 27.4074 94.3525 27.44C94.1653 27.2664 94.0026 27.2175 93.8805 26.7944L94.4393 26.751L93.6147 26.2898C93.4546 25.7419 92.6951 25.2862 93.0233 25.1533L93.2783 25.3594C92.5649 24.1659 91.7864 23.0131 90.9591 21.8928L91.2358 21.5917C90.8886 21.6053 90.5739 21.1306 90.2837 20.7156C89.9962 20.3006 89.7059 19.9778 89.4998 20.2572C89.375 19.8422 88.8189 19.2942 88.3741 18.8657C87.9292 18.4371 87.6254 18.0845 88.0621 17.9705C87.8234 17.7183 87.5902 17.4904 87.3596 17.2815C87.1209 17.0808 86.8849 16.8964 86.6516 16.7201C86.2637 16.4352 85.8894 16.1667 85.5015 15.9117C85.4147 15.8222 85.3252 15.73 85.2357 15.6405C85.0485 15.4479 84.8614 15.2553 84.6742 15.0627C84.487 14.8701 84.2999 14.6775 84.11 14.4849C83.9147 14.3005 83.7167 14.116 83.5214 13.9316C83.3261 13.7471 83.1281 13.56 82.93 13.3755C82.7347 13.1883 82.5367 13.0012 82.3279 12.8303C81.9183 12.4777 81.506 12.1223 81.0937 11.7697C80.9933 11.6802 80.8848 11.5934 80.779 11.512L80.4562 11.2597L79.8133 10.7552C79.5963 10.5897 79.3875 10.4134 79.165 10.2561L78.4978 9.78141L77.8278 9.30672C77.7166 9.22806 77.6053 9.14668 77.4914 9.07073L77.1442 8.8483C76.6831 8.55264 76.222 8.25426 75.7581 7.95588C74.806 7.40524 73.8621 6.83018 72.872 6.34193L72.1342 5.95946L71.9497 5.86452L71.7598 5.77772L71.3828 5.60412C70.8783 5.37627 70.3792 5.13485 69.8692 4.91514C69.3538 4.70899 68.8385 4.50012 68.3231 4.29397C68.1929 4.24243 68.0654 4.18818 67.9352 4.14207L67.5419 4.00644L66.7525 3.73248C64.6422 3.01908 62.4776 2.42775 60.2696 2.05342C59.3473 1.89067 58.4169 1.75776 57.4838 1.64654C57.4296 1.60586 57.3753 1.57059 57.3238 1.55161C56.8762 1.37258 56.4314 1.17185 55.9784 0.9874C55.5254 0.811086 55.0642 0.667322 54.6004 0.572383C54.595 0.572383 54.5896 0.569671 54.5841 0.569671C54.5543 0.53712 54.5272 0.496433 54.4946 0.466595C54.2071 0.222467 53.7948 0.141092 53.1546 0.328256C52.9159 0.398782 52.6691 0.444895 52.4168 0.469307C52.1646 0.496433 51.9042 0.518133 51.6438 0.518133C51.1229 0.523558 50.594 0.469307 50.0922 0.412344C49.5931 0.374369 49.094 0.322831 48.5949 0.26858C48.3453 0.244168 48.0958 0.208905 47.8462 0.187205L47.0976 0.130242C46.5985 0.0949787 46.0966 0.0488657 45.5948 0.024453C45.093 0.0136029 44.5912 0.00817783 44.0867 0.0136029C41.6752 0.0705659 39.2692 0.401494 36.8957 0.900599C37.4274 0.946712 38.0757 0.9657 38.8027 0.95485C39.1661 0.941287 39.554 0.95485 39.9582 0.952137C40.1806 0.952137 40.4112 0.949425 40.6417 0.946712C40.5577 1.06064 40.4736 1.17456 40.3895 1.2912C40.5929 1.18541 40.7964 1.07691 41.0025 0.984687C40.9917 0.971125 40.9808 0.957562 40.97 0.941287C41.0513 0.938574 41.13 0.938574 41.2087 0.935862C41.64 0.933149 42.0848 0.946712 42.5378 0.943999C42.7629 0.943999 42.9935 0.943999 43.2214 0.943999C43.3353 0.943999 43.4519 0.941287 43.5686 0.943999C43.6852 0.949425 43.7991 0.952137 43.9158 0.957562C44.3796 0.973837 44.8489 0.9874 45.3181 0.995537L45.6708 1.00368C45.7874 1.00639 45.904 1.01724 46.0234 1.02266C46.2567 1.03623 46.49 1.04979 46.7232 1.06335C46.9565 1.0742 47.1871 1.08776 47.4176 1.09861C47.6482 1.11218 47.8761 1.11489 48.1039 1.1393C48.5569 1.17728 49.0018 1.21525 49.4358 1.24509C49.6528 1.26137 49.867 1.27493 50.0786 1.2912C50.2875 1.3129 50.4964 1.3346 50.6971 1.3563C50.7323 1.35902 50.7649 1.36173 50.8002 1.36715C50.6049 1.36987 50.4095 1.37529 50.2142 1.39157L49.9647 1.40784C49.9538 1.40242 49.943 1.3997 49.9321 1.39157C49.6446 1.22068 49.1971 1.22881 48.8553 1.3346C48.4864 1.43497 48.1256 1.51363 47.7676 1.57331C47.6048 1.60043 47.4421 1.61942 47.2793 1.63841L47.1437 1.65468C46.9972 1.67096 46.848 1.68723 46.7015 1.70351C46.3489 1.73606 45.9963 1.75233 45.6436 1.75504C45.4673 1.75504 45.2937 1.75233 45.1174 1.74691C44.9411 1.73877 44.7675 1.74148 44.5912 1.73606C44.2413 1.72521 43.8886 1.70351 43.5387 1.67096C43.3624 1.65468 43.1861 1.63841 43.0098 1.61671C42.8335 1.59772 42.6572 1.58687 42.4808 1.57059C42.1255 1.53804 41.7702 1.50278 41.4148 1.46209L40.8777 1.40242C40.6987 1.38343 40.5197 1.37529 40.3407 1.35902C40.3596 1.33732 40.3705 1.31562 40.3895 1.2912C40.3488 1.3129 40.3108 1.33189 40.2701 1.35359L40.3135 1.39699C39.8714 1.55974 39.3587 1.54076 38.8488 1.67638C38.3388 1.82015 37.8343 2.1348 37.4437 2.91329C37.7421 2.90516 38.0187 2.90244 38.2791 2.89973C38.4093 2.89973 38.5341 2.89973 38.6562 2.89702C38.7782 2.89431 38.8949 2.89702 39.0115 2.90244C39.4754 2.91872 39.8904 2.92414 40.3027 2.88888C40.5088 2.87261 40.715 2.84819 40.9211 2.82107C40.9889 2.81564 41.0541 2.8075 41.1219 2.79937C40.8398 2.87532 40.5549 2.94584 40.2728 3.02722C40.0043 3.10317 39.7303 3.17098 39.4645 3.25507L38.667 3.51819L37.8695 3.7813L37.4708 3.91422L37.0802 4.06612C37.0124 4.09324 36.9446 4.11765 36.8768 4.14478C36.5513 4.21802 36.2258 4.28854 35.9002 4.35636L35.5937 4.41875L35.2899 4.4947L34.6796 4.63846L34.0286 4.78765L33.7031 4.8636C33.5946 4.88801 33.4888 4.92328 33.3803 4.9504L32.0864 5.31117L31.7636 5.40068C31.6551 5.43052 31.5494 5.46849 31.4436 5.50376L30.8034 5.71262L30.1633 5.9242L29.8432 6.02999C29.7374 6.06796 29.6316 6.10865 29.5258 6.14934L28.2618 6.63217L27.9444 6.75423L27.6325 6.88986L27.0086 7.16111L26.3847 7.43507C26.2816 7.48119 26.1758 7.52459 26.0728 7.57341L25.7663 7.72532L24.5402 8.33292C22.9289 9.18737 21.334 10.1178 19.8312 11.2028L19.2589 11.5907C19.069 11.7236 18.89 11.8728 18.7055 12.0111L17.6043 12.8737C17.2462 13.1721 16.8963 13.4813 16.5409 13.7878L16.012 14.2517C15.8411 14.4117 15.6729 14.5744 15.5021 14.7372C15.144 15.0844 14.7832 15.4289 14.4306 15.7815L13.4026 16.8774C13.0526 17.2381 12.738 17.6287 12.4098 18.0112C12.087 18.3964 11.7479 18.7734 11.4468 19.1776L10.5164 20.3792C10.2153 20.7861 9.92781 21.2039 9.63214 21.6189C9.48567 21.8277 9.33648 22.0339 9.19271 22.2455L8.7777 22.8883L8.36268 23.5312C8.22705 23.7482 8.08058 23.9571 7.95309 24.1822L7.16917 25.5086L6.97387 25.8423L6.78941 26.1813L6.42322 26.8622C5.91598 27.7655 5.47926 28.7067 5.01271 29.6398C4.79299 30.1118 4.58413 30.5919 4.36713 31.0693L4.04434 31.7881L3.74596 32.5178C3.55066 33.0061 3.34179 33.4943 3.1492 33.988C2.96475 34.4871 2.7803 34.9835 2.59585 35.4826C2.3897 36.0061 2.37071 36.5866 2.27306 37.1481C2.4982 36.5893 2.70977 36.0332 2.95933 35.488C3.01358 35.3632 3.06783 35.2412 3.12208 35.1164L2.70977 36.4889C2.55516 36.9745 2.44395 37.4736 2.31646 37.9673C2.19711 38.4637 2.05877 38.9573 1.96383 39.4619L1.6546 40.97C1.56238 41.4746 1.48642 41.9845 1.40505 42.4945C1.36436 42.7495 1.32096 43.0044 1.2857 43.2594L1.19347 44.0298L1.10125 44.8001C1.07412 45.0578 1.03343 45.3155 1.01716 45.5732L0.895094 47.1275L0.865256 47.5181L0.848981 47.9087L0.816431 48.6899C0.756755 49.7342 0.775743 50.7785 0.764893 51.8337C0.77303 52.3599 0.79473 52.8835 0.811006 53.4124L0.835418 54.2072L0.886956 54.9992C0.924932 55.5282 0.949344 56.0598 0.992745 56.5915C1.04428 57.1231 1.09582 57.6548 1.14736 58.1864C1.19076 58.7506 1.42675 59.2769 1.58136 59.8248C1.54068 59.2199 1.48642 58.6232 1.47286 58.021C1.45116 57.4188 1.42132 56.8248 1.40234 56.2307C1.39691 55.6394 1.39149 55.0453 1.38606 54.454C1.38606 54.3075 1.38064 54.161 1.38335 54.0119L1.3942 53.5697L1.4159 52.6909L1.4376 51.8174L1.48914 50.944L1.53796 50.076L1.56238 49.6447L1.60306 49.2134L1.7631 47.4964L1.98553 45.7956C2.31103 43.5415 2.76402 41.3308 3.34993 39.1798C3.95211 37.0314 4.69534 34.9482 5.57963 32.9518C5.54436 33.177 5.49283 33.3967 5.45214 33.6191C5.40874 33.8415 5.36263 34.0612 5.30837 34.2782C5.20259 34.715 5.06696 35.1408 4.93676 35.5721C4.81469 36.0034 4.67907 36.4347 4.54073 36.8633C4.47563 37.0803 4.39697 37.2918 4.34 37.5116L4.16369 38.168C4.05247 38.6074 3.93584 39.0441 3.85989 39.4917C3.78936 39.9393 3.73511 40.3868 3.70798 40.8398C3.69713 41.065 3.68357 41.2901 3.69713 41.518C3.70798 41.7458 3.72697 41.9737 3.75681 42.2015C3.81649 42.6572 3.906 43.1129 4.06061 43.5632C4.20166 43.0831 4.35357 42.6084 4.48919 42.1364L4.69263 41.4285C4.76587 41.1925 4.83911 40.9592 4.90963 40.7259C4.98016 40.4926 5.04797 40.2566 5.11307 40.0234C5.17817 39.7901 5.24056 39.5541 5.31651 39.3235C5.46028 38.8597 5.59319 38.3931 5.71797 37.9293C5.77764 37.6906 5.85631 37.4573 5.92954 37.2213L6.14926 36.5188L6.36897 35.819L6.61581 35.1273L6.86265 34.4383L6.98743 34.0938C7.02812 33.9799 7.07694 33.8686 7.12305 33.7547L7.67641 32.4039C8.45762 30.6245 9.33919 28.9047 10.3537 27.2799C11.3844 25.666 12.521 24.1388 13.785 22.75C14.1024 22.4055 14.436 22.0746 14.7642 21.7409C14.9243 21.5836 15.0789 21.4209 15.2444 21.2662C14.8076 21.8956 14.3845 22.5357 13.9803 23.1867L13.3863 23.9896L13.0255 24.4806C12.9034 24.6433 12.7977 24.8169 12.681 24.9851L11.9975 26.0023C11.8808 26.1705 11.7778 26.3468 11.6692 26.5204L11.3492 27.0439L11.0264 27.5702L10.8663 27.8333L10.7172 28.1018C10.3184 28.8233 9.89797 29.5395 9.53449 30.2854C8.2596 32.7809 7.09864 35.3958 6.19808 38.1653C5.30024 40.9321 4.66822 43.8453 4.45935 46.8291C4.39154 47.5154 4.37255 48.2098 4.35085 48.9123L4.34 49.4385L4.33729 49.7017L4.34814 49.9648C4.36442 50.3147 4.39154 50.6673 4.4268 51.0172C4.44579 51.1908 4.46749 51.3671 4.4919 51.5407C4.51632 51.7144 4.54073 51.888 4.58142 52.0588C4.65737 52.4033 4.74959 52.7424 4.8581 53.076C4.92862 53.2876 5.00728 53.4992 5.09137 53.7053C5.13749 55.1348 5.23785 56.5698 5.40874 58.0128C5.38433 58.1349 5.36534 58.257 5.35991 58.379C5.3572 58.5255 5.36805 58.6666 5.39789 58.7995C5.49825 59.2443 5.60133 59.6892 5.71254 60.134C6.13027 62.6051 6.77856 65.0654 7.72795 67.4253C7.96665 68.0682 8.25147 68.6975 8.53357 69.3322L8.75328 69.8069L8.86721 70.0429L8.99199 70.2735C9.16016 70.5773 9.33376 70.8784 9.51822 71.174C9.61044 71.3205 9.70538 71.467 9.80303 71.6107C9.90068 71.7545 9.99833 71.8983 10.1095 72.0312C10.3265 72.2997 10.5571 72.5601 10.7985 72.8097C11.0427 73.0565 11.2949 73.2925 11.5716 73.5068C11.6557 73.5692 11.7452 73.6261 11.832 73.6858C12.3148 74.4101 12.8194 75.1235 13.3429 75.8206C13.3429 75.8721 13.3429 75.9182 13.3402 75.9725C13.3185 76.2573 13.3429 76.5719 13.4107 76.873C13.446 77.0222 13.4921 77.1687 13.549 77.3043C13.6087 77.4372 13.6819 77.5566 13.766 77.6597C14.1648 78.1506 14.5662 78.6497 14.9867 79.1271C15.4152 79.5937 15.852 80.0575 16.2941 80.5187C16.7471 80.9635 17.2137 81.3975 17.6775 81.8343C17.9081 82.0567 18.1549 82.2547 18.3936 82.4636L19.1206 83.082C19.2752 83.2068 19.4461 83.3126 19.6549 83.4048C19.8638 83.497 20.0998 83.5947 20.371 83.7249C20.2978 83.4238 20.1595 83.1824 19.9913 82.9654C20.3982 83.318 20.805 83.6652 21.2228 84.0043C21.2173 83.9934 21.2119 83.9799 21.2065 83.969C21.2011 83.9636 21.1929 83.9609 21.1848 83.9582C21.1902 83.9582 21.1956 83.9554 21.2011 83.9527C20.9976 83.4129 20.8213 82.8352 20.6043 82.1353C20.8267 82.0594 21.0275 81.9672 21.2119 81.8858C21.6541 82.3062 22.1043 82.7185 22.5628 83.1227C22.457 83.2746 22.3403 83.4238 22.2237 83.5323C21.9714 83.7737 21.5537 83.8252 21.2011 83.9527C21.2038 83.9582 21.2038 83.9636 21.2038 83.969C21.7354 84.2077 22.2508 84.5495 22.7825 84.7394C22.796 84.8045 22.8015 84.8723 22.8177 84.9347C22.9045 85.2683 23.032 85.5748 23.2083 85.8325C23.5583 86.356 24.0574 86.7792 24.6677 87.1589C26.759 88.4203 28.9589 89.5134 31.2401 90.4221C31.3025 90.4547 31.3649 90.4872 31.4273 90.5198C31.6362 90.6255 31.8477 90.734 32.062 90.8453C32.279 90.951 32.5042 91.0487 32.7293 91.1545C33.1823 91.3606 33.6543 91.5695 34.1398 91.7838C34.6308 91.9818 35.138 92.1717 35.6561 92.3697C35.9165 92.4674 36.1796 92.5677 36.4482 92.6599C36.7167 92.7467 36.9907 92.8335 37.2646 92.9203C37.5413 93.0071 37.818 93.0939 38.0974 93.1807C38.3768 93.2675 38.6616 93.3571 38.9491 93.4276C39.5242 93.5768 40.1101 93.7233 40.7041 93.867L40.9266 93.9213L41.1517 93.9674C41.3009 93.9972 41.4528 94.0271 41.602 94.0569C41.9031 94.1139 42.2069 94.1735 42.5107 94.2305C42.8145 94.2848 43.121 94.3498 43.4275 94.3932C43.7367 94.4339 44.0433 94.4773 44.3525 94.518C44.6617 94.5587 44.9737 94.5967 45.2829 94.6374C45.4375 94.6564 45.5948 94.6781 45.7494 94.6916L46.2187 94.7269C46.8426 94.7757 47.4692 94.8164 48.0958 94.8544C48.2612 94.8598 48.424 94.8571 48.5894 94.8625C49.7884 94.99 50.99 95.0687 52.1917 95.0904C54.9123 95.15 57.6384 94.9737 60.3347 94.5587C63.9559 93.9864 67.5066 92.9665 70.9054 91.5451C70.5338 91.7485 70.1595 91.9493 69.7933 92.1608C69.3918 92.3941 68.9931 92.6247 68.597 92.8552C68.2037 93.0912 67.8213 93.3381 67.4524 93.6093C67.2408 93.7612 67.0319 93.9186 66.8176 94.0596C66.6006 94.1979 66.3836 94.3336 66.1639 94.4665C65.7245 94.7296 65.2796 94.9764 64.8321 95.207C64.6096 95.3264 64.3764 95.424 64.1485 95.5217C63.9179 95.6193 63.6874 95.7142 63.4541 95.8038C62.9875 95.9801 62.521 96.1483 62.0463 96.2785C61.5689 96.4032 61.0861 96.509 60.6032 96.5904C60.1204 96.6718 59.6376 96.745 59.1439 96.7613C58.6529 96.7857 58.162 96.7884 57.671 96.7667C57.4241 96.7559 57.18 96.7423 56.9359 96.7152C56.689 96.6853 56.4422 96.6474 56.1954 96.6067C55.7885 96.5361 55.3545 96.4955 54.9449 96.5416C54.4838 96.5985 54.0199 96.6229 53.5561 96.6501C53.0922 96.6772 52.6311 96.6989 52.1727 96.7206C51.7116 96.7369 51.2504 96.7287 50.7893 96.7314C50.3282 96.7287 49.8725 96.7369 49.4141 96.7206L48.0442 96.6636L47.3634 96.6365C47.1382 96.6311 46.9104 96.6067 46.6825 96.5931C45.7766 96.5226 44.876 96.4846 43.9782 96.3924C40.7041 96.1238 37.4817 95.5569 34.3595 94.6753C32.8731 94.2549 31.4083 93.7639 29.9761 93.2024C29.6235 93.0153 29.2681 92.8308 28.9209 92.6328L27.7247 91.9357L27.1279 91.5912C26.9272 91.48 26.7373 91.3498 26.542 91.2304C25.7635 90.7395 24.9769 90.2811 24.2174 89.7738C21.4154 87.989 18.7869 85.96 16.3863 83.7032C13.9857 81.4464 11.813 78.9563 9.9251 76.2709C9.59959 75.807 9.26866 75.2618 8.81567 74.9933C8.58782 74.8549 8.37082 74.7057 8.16738 74.5484C7.96936 74.3829 7.7822 74.2093 7.60317 74.0249C7.24512 73.6587 6.92504 73.2572 6.63209 72.8368C6.34999 72.4055 6.09772 71.9525 5.85902 71.4914C5.73967 71.2608 5.62303 71.0275 5.50639 70.7943C5.39518 70.5583 5.2921 70.3169 5.1836 70.0754C4.95846 69.5601 4.68721 69.0691 4.39154 68.5212C4.10673 67.9651 3.78665 67.3602 3.43673 66.6387C3.42317 67.3602 3.36078 67.607 3.43131 67.7942C3.86531 68.9145 4.33729 70.0239 4.84725 71.1198C4.76316 71.1523 4.67636 71.1822 4.59227 71.2147C4.72789 71.4995 4.86081 71.7871 4.99643 72.0719L5.20259 72.5004L5.4223 72.9209C5.50096 72.8775 5.58234 72.8341 5.661 72.7907C6.39067 74.2121 7.19901 75.5982 8.09143 76.9273C7.99106 76.9436 7.85544 77.0032 7.74694 77.0277C7.86357 77.2121 7.96123 77.4155 8.1077 77.5674C8.15653 77.619 8.32199 77.5403 8.48746 77.4996C8.58782 77.6434 8.68276 77.7872 8.78583 77.9282C10.8012 80.752 13.1069 83.375 15.654 85.7566C15.5726 85.6942 15.4912 85.6345 15.4071 85.5721C15.7055 86.2204 15.7597 86.4727 15.9062 86.6056C18.6703 89.1255 21.7192 91.3932 25.08 93.1156C26.5719 93.886 28.1044 94.5804 29.6696 95.1989C32.6072 96.5714 35.6805 97.7025 38.8542 98.5651C42.1119 99.4521 45.4809 99.9295 48.8932 100C52.3083 100.071 55.7776 99.7261 59.1846 98.9801C62.5915 98.2342 65.9388 97.0895 69.1368 95.5922C72.3349 94.0949 75.3865 92.2449 78.2374 90.1047C81.5738 87.5902 84.5928 84.6173 87.2375 81.3162C87.4084 81.1154 87.563 80.9011 87.7258 80.6896L88.2059 80.0548L88.6806 79.4174C88.8379 79.2058 88.998 78.9942 89.1471 78.7718L90.0423 77.4562L90.4844 76.7944L90.9049 76.1162L91.0839 75.8233C91.3199 75.6551 91.4908 75.4707 91.4447 75.232L91.7376 74.7546C91.8597 74.5592 91.9709 74.3558 92.0821 74.1524C92.5351 73.4878 92.9799 72.8124 93.4058 72.1234C93.4411 72.1451 93.4628 72.1532 93.4492 72.0556C93.5306 71.9227 93.6174 71.7952 93.6988 71.6596C94.4067 70.4796 95.0659 69.2617 95.6789 68.0166L95.7277 67.9895C96.2811 67.2571 96.4384 66.7363 96.6039 66.1206C96.6174 66.069 96.6283 66.0121 96.6419 65.9578C96.9565 65.2417 97.2576 64.5175 97.5397 63.7824C97.6455 63.5084 97.7594 63.2263 97.8516 62.9388C97.8679 62.8818 97.8842 62.8249 97.9032 62.7706C98.3453 62.3203 98.7359 62.3095 98.8553 62.9849C98.782 62.3393 98.7197 62.182 98.7197 61.9921C98.7169 61.8022 98.7658 61.5798 98.8553 60.804C99.1509 60.6467 99.1537 60.8149 99.2594 61.2055C99.5931 60.587 99.5985 60.3646 99.5551 60.1747C99.5144 59.9876 99.4303 59.8329 99.5632 59.3311C99.3245 59.0626 98.9773 58.7506 98.7848 58.4794C98.7875 58.4468 98.7902 58.4116 98.7902 58.3817C98.7902 58.2244 98.782 58.0915 98.7658 57.9911C98.7332 57.7904 98.6681 57.7118 98.5705 57.7958C98.5325 57.8284 98.4837 57.8935 98.4348 57.9776C98.4484 57.5843 98.4674 57.1801 98.5325 56.7786C98.6274 56.2117 98.7468 55.6312 98.9475 55.0399L99.1618 55.1213C99.1862 54.6819 99.2323 54.2451 99.235 53.803L99.528 53.7569C99.5605 53.1276 99.6121 52.4983 99.6256 51.8717L99.5334 52.1239C99.528 51.9015 99.5226 51.4268 99.5415 50.906C99.528 50.6402 99.5443 50.3689 99.5714 50.1113ZM8.18365 27.977L8.10228 28.1208L8.02904 28.2673L7.87985 28.5602C7.68184 28.9535 7.48382 29.3469 7.28852 29.7375C7.12577 29.6507 6.96573 29.5666 6.80298 29.4798C7.23156 28.6986 7.63843 27.9092 8.11041 27.1579C8.24604 27.2419 8.37353 27.3206 8.50644 27.4047C8.40066 27.5973 8.29215 27.7872 8.18365 27.977ZM43.3271 98.5488C43.0776 98.5488 42.828 98.5271 42.5785 98.5081C42.3289 98.4865 42.0821 98.462 41.8353 98.4322C41.3443 98.3698 40.856 98.2993 40.3732 98.1908C40.0667 98.1175 39.7629 98.0335 39.4591 97.9439C40.4003 98.1094 41.347 98.2505 42.3018 98.3617C42.9176 98.4349 43.5387 98.4919 44.1572 98.5434C43.8832 98.5488 43.6038 98.5516 43.3271 98.5488ZM12.3365 60.7227C12.3284 60.7145 12.3175 60.7064 12.3094 60.6982C12.1331 60.5029 11.9649 60.2859 11.8266 60.0527C11.7588 59.9414 11.7018 59.8248 11.653 59.7082C11.6367 59.6241 11.6177 59.54 11.6014 59.4559C11.5662 59.2823 11.5282 59.1141 11.4902 58.9432C11.4658 58.7615 11.4387 58.577 11.4143 58.398L11.3573 57.9396L11.3302 57.7117C11.322 57.6358 11.3193 57.5571 11.3139 57.4812L11.2759 56.9088C11.5689 58.0834 11.908 59.2443 12.2958 60.3917C12.3067 60.5002 12.3203 60.6114 12.3365 60.7227ZM44.366 91.008C44.225 90.9809 44.0839 90.9538 43.9429 90.9266C43.8534 90.8019 43.753 90.7069 43.6391 90.6445C43.5821 90.6147 43.5224 90.593 43.4601 90.5767C43.5441 90.5713 43.631 90.5686 43.715 90.5659L43.8154 90.5876L44.0188 90.6255L44.4284 90.6988C44.5885 90.7286 44.7485 90.7585 44.9085 90.7856C44.8977 90.81 44.8896 90.8344 44.8787 90.8588C44.8516 90.9348 44.8326 91.0134 44.8109 91.0894C44.6644 91.065 44.5152 91.0351 44.366 91.008ZM20.9407 77.3152C21.0817 77.4535 21.2228 77.5919 21.3638 77.7329L21.4045 77.7709C21.456 77.8306 21.5076 77.8875 21.5591 77.9472C21.7463 78.1615 21.9552 78.3704 22.1532 78.5819C22.2508 78.6877 22.3458 78.7989 22.4353 78.9074C22.5275 79.0159 22.6116 79.1272 22.6848 79.2438C22.7038 79.2736 22.7201 79.3062 22.7364 79.336C22.5492 79.1488 22.362 78.9617 22.1803 78.7718C21.5835 78.1371 21.0031 77.4888 20.4443 76.8242C20.6097 76.9897 20.7725 77.1497 20.9407 77.3152ZM19.7336 74.9607L19.8095 75.0448C19.8123 75.0502 19.815 75.0584 19.815 75.0638C19.7878 75.0285 19.7607 74.996 19.7336 74.9607ZM52.5145 90.216C52.4494 90.216 52.3843 90.2187 52.3192 90.2187C51.9665 90.2214 51.6031 90.2105 51.2342 90.2105C51.0497 90.2105 50.8625 90.2105 50.6754 90.2105C50.5804 90.2105 50.4882 90.2132 50.3933 90.2105C50.2983 90.2078 50.2034 90.2051 50.1085 90.1997C49.7287 90.1861 49.3462 90.1753 48.9638 90.1671L48.6762 90.1617C48.5813 90.159 48.4864 90.1508 48.3887 90.1454C48.1988 90.1346 48.0063 90.1237 47.8164 90.1129C47.7784 90.1102 47.7431 90.1102 47.7052 90.1075C47.7024 90.1047 47.7025 90.1047 47.6997 90.102C47.5424 89.942 47.3824 89.8199 47.225 89.7196L48.1554 89.8471C48.4104 89.8877 48.6681 89.8986 48.9231 89.923L49.6907 89.9881L50.4611 90.0532C50.7188 90.0722 50.9738 90.0722 51.2314 90.083L52.5931 90.1264C52.5579 90.1427 52.5226 90.1644 52.4846 90.1807C52.4982 90.1943 52.5063 90.2051 52.5145 90.216ZM47.8381 89.5948C48.1256 89.5677 48.4131 89.5541 48.7007 89.5541C48.8444 89.5541 48.9855 89.5568 49.1292 89.5622C49.273 89.5677 49.4141 89.5649 49.5578 89.5731C49.7531 89.5785 49.9484 89.5948 50.141 89.6084C50.3553 89.6816 50.5642 89.7494 50.7568 89.8036C49.7124 89.7847 48.66 89.725 47.6075 89.6219C47.6862 89.6138 47.7648 89.6029 47.8381 89.5948ZM44.4013 89.7006C44.6454 89.6382 44.9031 89.668 45.2015 89.8471C45.2585 89.8823 45.3263 89.9067 45.3968 89.9257C45.3887 89.9339 45.3832 89.942 45.3778 89.9501C45.2802 89.942 45.1798 89.9366 45.0849 89.9284C44.914 89.9094 44.7458 89.8932 44.5803 89.8742C44.4149 89.8579 44.2494 89.8416 44.0921 89.8281C44.1924 89.7738 44.2955 89.7277 44.4013 89.7006ZM54.2451 89.6192C54.359 89.5867 54.4729 89.5433 54.5841 89.4836C54.7143 89.4754 54.8418 89.4727 54.972 89.4646C55.3762 89.4565 55.8075 89.4727 56.2632 89.508C55.3084 89.6273 54.34 89.7141 53.3635 89.763C53.6456 89.7114 53.9467 89.6979 54.2451 89.6192ZM42.47 88.4284C42.2747 88.4854 42.0767 88.5532 41.8759 88.6291C41.8 88.6074 41.7213 88.583 41.6454 88.5613C41.6535 88.4392 41.6562 88.328 41.6481 88.225C41.9221 88.2955 42.196 88.3633 42.47 88.4284ZM22.9317 67.7589C23.0076 67.9136 23.0836 68.0682 23.1595 68.2201C23.0591 68.277 22.9588 68.3313 22.8584 68.3883C22.8259 68.1984 22.7906 68.0085 22.7581 67.8213C22.815 67.7996 22.872 67.7779 22.9317 67.7589ZM31.9861 84.5034C31.9671 84.4627 31.9454 84.4193 31.9264 84.3759C32.4228 84.6471 32.9246 84.9103 33.4319 85.1625C33.4997 85.2466 33.5702 85.3253 33.6407 85.4039C33.0819 85.1164 32.5313 84.8153 31.9861 84.5034ZM41.6454 88.5722C41.7186 88.5911 41.7946 88.6129 41.8678 88.6318C41.7891 88.6617 41.7132 88.6861 41.6318 88.7186C41.64 88.6671 41.6427 88.621 41.6454 88.5722ZM59.7352 89.8633L59.567 89.7114C59.5318 89.7114 59.4992 89.7114 59.464 89.7114L59.7108 89.8769C59.5698 89.9745 59.4233 90.0559 59.2687 90.1183C58.9947 90.2377 58.7017 90.3136 58.3925 90.3624C58.2379 90.3868 58.0779 90.4031 57.9151 90.414C57.7524 90.4275 57.5842 90.4302 57.4106 90.4248C57.0661 90.414 56.6999 90.4953 56.3473 90.631C56.171 90.6988 55.9974 90.7802 55.8292 90.8724C55.6637 90.9619 55.5037 91.0677 55.3545 91.1626C55.3464 91.168 55.3409 91.1708 55.3328 91.1762C54.5299 91.225 53.727 91.2494 52.9214 91.2549C52.8563 91.2142 52.7966 91.1653 52.7288 91.1301C52.5714 91.0433 52.4087 90.97 52.2432 90.8968C52.1863 90.8724 52.1266 90.8534 52.0696 90.8317C53.3309 90.7069 54.5896 90.5089 55.8346 90.2458C55.4006 90.2078 54.8717 90.1915 54.2776 90.2024C53.982 90.2132 53.6646 90.2024 53.3364 90.2051C53.1546 90.2051 52.9675 90.2078 52.7776 90.2105C52.7966 90.1834 52.8156 90.159 52.8346 90.1319L54.3156 90.102C54.5733 90.0939 54.831 90.0966 55.0887 90.0803L55.859 90.0261L56.6294 89.9691C56.8871 89.9474 57.1448 89.9393 57.3997 89.9013L58.5119 89.763C58.5227 89.7982 58.5336 89.8335 58.5444 89.8715L59.0571 89.7657L59.3121 89.7114L59.3175 89.7087C59.3663 89.7087 59.4151 89.7114 59.4613 89.7114C59.4477 89.7006 59.4341 89.6924 59.4206 89.6843L59.5643 89.6463C59.6593 89.6219 59.7515 89.5975 59.8464 89.5731L60.1204 89.5243C60.001 89.6518 59.8736 89.7684 59.7352 89.8633ZM54.7496 91.5153C54.5733 91.5993 54.397 91.6617 54.2179 91.6943C54.0281 91.7295 53.8382 91.7323 53.6456 91.6916C53.5724 91.6753 53.4991 91.6536 53.4259 91.6265C53.3988 91.6021 53.3689 91.5804 53.3418 91.5559C53.6646 91.5478 53.9874 91.5397 54.3047 91.5315C54.4539 91.5234 54.6004 91.518 54.7496 91.5153ZM59.5589 88.9384C59.2497 89.0062 58.9432 89.074 58.6312 89.1337C58.6177 89.1255 58.6068 89.1147 58.5932 89.1065L58.5634 89.0848C58.8862 89.036 59.209 88.9818 59.5291 88.9275C59.5372 88.9302 59.5481 88.9329 59.5589 88.9384ZM16.5138 39.7494C16.5518 39.885 16.5898 40.0179 16.625 40.1536C16.6603 40.2865 16.7091 40.4221 16.7498 40.555C16.8312 40.8208 16.9044 41.0812 16.9505 41.3389C16.975 41.4664 16.9912 41.5939 16.9994 41.7214C17.0156 41.8489 17.0211 41.9764 17.0184 42.1039C17.0156 42.1717 17.0048 42.2368 16.9967 42.3046C16.9641 42.3968 16.937 42.4945 16.899 42.5786C16.8122 42.7712 16.7661 42.9746 16.7417 43.1807C16.7064 43.2865 16.6739 43.3923 16.6386 43.5008C16.5708 43.7151 16.5084 43.9294 16.4487 44.1437C16.4189 44.2522 16.3863 44.3607 16.3646 44.4692L16.3022 44.7974C16.2643 45.0171 16.229 45.2368 16.2019 45.4593C16.1856 45.5813 16.1829 45.7061 16.1965 45.8336C16.2127 45.9611 16.2399 46.0886 16.2697 46.2215C16.3321 46.4873 16.4135 46.7667 16.4704 47.0759C16.6847 47.0163 16.8827 46.9539 17.0726 46.8888C17.0401 47.0407 17.0021 47.179 16.9587 47.2956C16.8637 47.5913 16.7471 47.7459 16.7091 47.6727C16.8095 49.0235 17.4388 50.2686 17.3086 52.1185C17.1648 52.2921 17.1594 52.7044 17.2218 53.2198C17.2977 53.7352 17.4632 54.3509 17.6151 54.945C17.7589 55.4631 17.9081 55.9595 18.003 56.3663C17.8728 56.3012 17.7426 56.2361 17.6015 56.1656C17.3222 56.8302 16.8013 57.4676 16.9451 57.9559C17.0075 58.1864 17.0509 58.4143 17.0807 58.6449C17.1106 58.8673 17.1241 59.087 17.1431 59.3094C16.701 58.0861 16.3131 56.8437 15.9903 55.5851C15.8764 55.0969 15.7597 54.6086 15.6458 54.1231C15.5563 53.6294 15.4641 53.1384 15.3746 52.6447C15.2715 52.1538 15.2281 51.6547 15.1576 51.1583L15.0599 50.4123C15.0409 50.2876 15.0328 50.1628 15.0219 50.038L14.9921 49.6637C14.9324 49.2595 14.8727 48.8635 14.8076 48.4756C14.7697 48.283 14.7561 48.0877 14.729 47.8978C14.7046 47.708 14.6802 47.5181 14.6557 47.3309C14.6069 46.9566 14.5445 46.5931 14.493 46.2378C14.4523 45.8824 14.4062 45.5352 14.3574 45.1962C14.4143 44.9222 14.4632 44.6238 14.5093 44.3092C14.5744 43.9945 14.634 43.6609 14.691 43.3082C14.7181 43.1319 14.7453 42.9529 14.7751 42.7684C14.8049 42.584 14.8212 42.3941 14.8619 42.2042C14.9351 41.8218 15.0029 41.423 15.0708 41.0107C15.106 40.8046 15.1359 40.5957 15.1738 40.3841C15.2118 40.197 15.2525 40.0044 15.2932 39.8118C15.6729 39.744 16.0771 39.7223 16.5138 39.7494ZM19.8801 74.1714C19.8991 74.3016 19.9262 74.429 19.956 74.5565C19.8936 74.5213 19.8285 74.4806 19.7607 74.4426C19.4244 74.0412 19.0934 73.637 18.7679 73.2247C18.7815 73.0999 18.8032 72.9724 18.8385 72.8422C19.1775 73.2925 19.5247 73.7346 19.8801 74.1714ZM33.0738 85.743C32.9409 85.6481 32.808 85.5531 32.6886 85.4392C32.5069 85.271 32.3496 85.0784 32.2058 84.8723C32.8242 85.2059 33.4481 85.5287 34.0829 85.8298C34.2863 86.0088 34.4952 86.1716 34.7122 86.2991C34.9888 86.4672 35.2682 86.6083 35.5476 86.7385C35.6887 86.8036 35.827 86.866 35.9681 86.9284C36.1091 86.9853 36.2529 87.0396 36.3939 87.0938C36.6543 87.1969 36.931 87.2837 37.1995 87.3814C37.3325 87.4302 37.4654 87.4844 37.5929 87.5387C37.7231 87.5929 37.8451 87.6526 37.9618 87.7231C37.9645 87.7259 37.9699 87.7286 37.9726 87.7313C37.78 87.6689 37.5847 87.6065 37.3921 87.5414C35.9138 87.0179 34.4518 86.4483 33.0738 85.743ZM63.153 89.1825C63.8827 89.2611 64.2868 89.215 64.5391 89.1201C64.6774 89.2828 64.8619 89.4619 65.1114 89.7331C65.1982 89.1011 65.2661 88.7431 65.2823 88.5749C65.3691 88.5478 65.4803 88.5342 65.6295 88.5423C65.8303 88.5695 66.031 88.5966 66.2317 88.6237C66.2317 88.6942 66.229 88.7648 66.2344 88.8353C66.2046 88.8624 66.1802 88.8841 66.1531 88.9085C66.0093 88.9356 65.8655 88.9628 65.7218 88.9899C65.8465 88.9872 65.9578 88.9872 66.069 88.9845C65.6892 89.3317 65.3773 89.6029 65.1169 89.7874C64.9677 89.8959 64.8321 89.9691 64.7046 90.0179C64.5771 90.0668 64.4604 90.0885 64.3465 90.0857C63.9722 90.0695 63.6413 89.7711 63.153 89.1825ZM12.7814 62.3502C12.7868 62.3664 12.7949 62.3854 12.8004 62.4017C12.9007 62.6675 13.0201 62.9469 13.1096 63.2263C13.1557 63.3647 13.1883 63.5057 13.2154 63.6413C13.2425 63.777 13.2561 63.9126 13.2479 64.0428C13.2452 64.0699 13.2452 64.0997 13.2452 64.1269C13.1286 63.861 13.0092 63.5952 12.898 63.3267C12.7732 63.031 12.6539 62.7299 12.5345 62.4315C12.6213 62.4098 12.7027 62.3854 12.7814 62.3502ZM13.5355 68.277C13.4026 68.0492 13.2832 67.8105 13.1666 67.5745C13.0472 67.3385 12.9279 67.1025 12.8112 66.8692C12.6919 66.6332 12.5725 66.4 12.4559 66.1667C12.3365 65.9334 12.2362 65.6893 12.1277 65.4533C11.9107 64.9759 11.6964 64.5012 11.4794 64.0292C11.6801 64.4632 11.8808 64.8945 12.0816 65.3258L12.3826 65.9714C12.4884 66.1857 12.6024 66.3918 12.7109 66.6034C12.9306 67.0238 13.1503 67.4443 13.37 67.862C13.5979 68.277 13.8447 68.6785 14.0807 69.0881C14.1078 69.1342 14.1349 69.1803 14.1621 69.2264C14.0725 69.1288 13.983 69.0284 13.8989 68.9226C13.7769 68.7083 13.6575 68.4913 13.5355 68.277ZM70.6124 87.951C71.2824 87.7448 71.8494 87.4844 72.5221 87.2132C72.5411 87.205 72.5628 87.1969 72.5817 87.1888L72.3403 87.3136C71.9253 87.517 71.5022 87.7042 71.0844 87.8995C70.5718 88.149 70.0455 88.366 69.5166 88.5776C69.8882 88.3741 70.2517 88.1626 70.6124 87.951ZM62.445 92.7006C62.5807 92.6491 62.7163 92.5948 62.8465 92.5406C63.2425 92.3806 63.6168 92.2232 63.9668 92.0686C64.1404 91.99 64.3113 91.914 64.474 91.8408C64.6368 91.7648 64.7887 91.6807 64.9378 91.6021C65.0897 91.5207 65.2362 91.4393 65.3746 91.3606L66.1693 91.1219C66.2914 91.084 66.4162 91.0487 66.5355 91.008L66.899 90.8805L67.6232 90.6228C70.2164 89.7141 72.7147 88.545 75.1044 87.1833C75.2536 87.2213 75.3241 87.3 75.2292 87.4519L75.674 86.923C76.6424 86.4727 77.3341 86.0631 77.9281 85.7484C78.5249 85.4392 78.9833 85.149 79.4688 84.8886C79.7727 84.7231 80.0846 84.5576 80.4237 84.3732C79.3468 85.2168 78.2509 86.0007 77.1225 86.7249C74.9118 88.1436 72.579 89.3561 70.0103 90.376L70.0157 90.3733L70.8078 90.0613C71.0736 89.9583 71.3286 89.8335 71.589 89.7196C72.1071 89.4836 72.6279 89.2557 73.1405 89.0116L74.6595 88.2358L75.0393 88.0405C75.1641 87.9727 75.2861 87.8995 75.4109 87.8289L76.1514 87.4031L76.7699 87.0477C75.5465 87.7855 74.2798 88.4827 72.9669 89.1174C70.2897 90.4113 67.4415 91.4691 64.4849 92.2314C63.804 92.4023 63.1259 92.5596 62.445 92.7006Z" fill="#FCE6FE"/>
<path d="M1.66554 40.1834C1.62214 40.0885 1.58145 39.999 1.53805 39.9067C1.50008 39.9556 1.45939 40.0044 1.4187 40.0532C1.44311 40.1129 1.45125 40.1997 1.49194 40.2241C1.52991 40.2458 1.60587 40.2024 1.66554 40.1834Z" fill="#FCE6FE"/>
<path d="M0.423154 50.1628C0.425867 50.0082 0.434004 49.8536 0.439429 49.7017C0.452992 49.3952 0.463842 49.0887 0.477405 48.7794C0.328216 48.7577 0.170889 48.7387 0.0162752 48.717C0.0135626 49.0344 0.00813758 49.3545 0.00542505 49.6746L0 50.1547L0.0162752 50.6321C0.149189 50.6294 0.29024 50.6267 0.425867 50.6267C0.423154 50.472 0.423154 50.3174 0.423154 50.1628Z" fill="#FCE6FE"/>
<path d="M1.0769 59.9496C1.17998 60.3565 1.28306 60.7607 1.38342 61.1648C1.50006 61.1323 1.61941 61.0997 1.73605 61.0645C1.63568 60.6657 1.53261 60.2616 1.43225 59.8601C1.31561 59.8927 1.19626 59.9225 1.0769 59.9496Z" fill="#FCE6FE"/>
<path d="M0.306396 55.3926C0.330809 55.6123 0.328097 55.8401 0.393197 56.0463C0.41761 56.1195 0.610199 56.1222 0.781089 56.1711C0.772951 55.9432 0.819064 55.7099 0.745826 55.5282C0.710563 55.436 0.46101 55.4333 0.306396 55.3926Z" fill="#FCE6FE"/>
<path d="M21.5023 86.7792C21.5294 86.7276 21.5565 86.6788 21.5891 86.6245L20.42 85.8461L19.8368 85.4527C19.6442 85.3198 19.457 85.1761 19.2671 85.0377C19.2563 85.1055 19.2454 85.1679 19.2373 85.233C19.4218 85.3659 19.6035 85.5097 19.7934 85.6345L20.3603 86.0169C20.7428 86.2719 21.1225 86.5242 21.5023 86.7792Z" fill="#FCE6FE"/>
<path d="M26.6913 3.8329C26.6561 3.73525 26.6208 3.63488 26.5855 3.53723C26.2682 3.71626 25.9562 3.91427 25.6443 4.10415C25.685 4.17468 25.723 4.24791 25.7636 4.32115C26.0729 4.15569 26.3821 3.98751 26.6913 3.8329Z" fill="#FCE6FE"/>
<path d="M32.4418 1.96929L32.7374 1.86621L33.0385 1.7767L33.6407 1.59767C33.6163 1.51629 33.5919 1.43221 33.5675 1.35083L32.9409 1.48103L32.6262 1.54884L32.3197 1.62751C31.9047 1.73601 31.4924 1.84451 31.0801 1.95301C31.137 2.09677 31.1994 2.24325 31.2591 2.38702C31.6524 2.24868 32.0484 2.11034 32.4418 1.96929Z" fill="#FCE6FE"/>
<path d="M13.2155 14.211L13.4353 13.9777L13.6631 13.7553L14.1215 13.3105C14.0646 13.2481 14.0076 13.1857 13.9506 13.1233L13.4488 13.5356L13.1993 13.7445L12.9578 13.9615C12.6351 14.2544 12.315 14.5474 11.9922 14.8376C12.1061 14.9407 12.2228 15.0383 12.3394 15.1414C12.6323 14.8322 12.9226 14.5202 13.2155 14.211Z" fill="#FCE6FE"/>
<path d="M19.4651 9.7489C19.8232 9.55902 20.1948 9.35558 20.5745 9.14129C20.957 8.93514 21.3612 8.73713 21.7653 8.52284C21.9661 8.41705 22.1695 8.30855 22.3756 8.20005C22.4787 8.1458 22.5791 8.08883 22.6849 8.0373C22.7907 7.98576 22.8937 7.93422 22.9995 7.88539C23.42 7.67924 23.8458 7.47038 24.269 7.2588L24.5864 7.09876C24.6921 7.04722 24.8006 7.00111 24.9091 6.94957C25.1234 6.85192 25.3377 6.75156 25.552 6.65391C25.7636 6.55354 25.9752 6.45589 26.1867 6.35824C26.3983 6.26059 26.6045 6.15752 26.816 6.07071C27.2365 5.89169 27.6515 5.71266 28.0502 5.53635C28.251 5.44683 28.449 5.36003 28.6416 5.27594C28.8396 5.19728 29.0322 5.11862 29.2221 5.04267C29.6018 4.88805 29.9653 4.73615 30.3071 4.58696C31.6905 4.03089 32.7646 3.55078 33.2502 3.20629C32.9057 2.84823 32.5802 2.54714 32.214 2.45492C31.8532 2.37083 31.449 2.49289 30.9608 2.96487C30.779 3.14119 30.5783 3.29851 30.364 3.43956C30.1497 3.58333 29.9273 3.72438 29.6968 3.84916C29.2329 4.09871 28.7392 4.30215 28.2672 4.4866C27.8061 4.68733 27.3396 4.87992 26.8703 5.06437C26.637 5.15931 26.3983 5.24611 26.1678 5.34376L25.4761 5.64756C25.0149 5.851 24.5484 6.0463 24.09 6.2633C23.637 6.49116 23.1867 6.72172 22.7418 6.96585C20.6152 8.15393 18.6134 9.58615 16.7146 11.1513C17.2083 10.9424 17.7942 10.6522 18.4398 10.2995C18.7544 10.1124 19.107 9.94149 19.4651 9.7489Z" fill="#FCE6FE"/>
<path d="M8.89435 18.5862C8.82111 18.5157 8.74516 18.4425 8.67192 18.3719C8.46577 18.6812 8.2759 19.004 8.07788 19.3213C8.14298 19.3674 8.21079 19.4108 8.27861 19.457C8.48476 19.1667 8.68549 18.8711 8.89435 18.5862Z" fill="#FCE6FE"/>
<path d="M10.408 80.7167C10.6765 81.0313 10.9423 81.3433 11.2082 81.6552C11.2977 81.5711 11.3899 81.4843 11.4794 81.4002C11.2163 81.091 10.9505 80.7791 10.6873 80.4698C10.5951 80.5539 10.5002 80.638 10.408 80.7167Z" fill="#FCE6FE"/>
<path d="M38.9138 94.8599C39.3614 94.906 39.8116 94.9521 40.2619 94.9982C40.2619 94.9412 40.2673 94.8816 40.2728 94.8219L38.8921 94.6808L38.2031 94.6049C37.9725 94.5778 37.7447 94.5371 37.5168 94.5045C37.5385 94.5696 37.5521 94.632 37.5765 94.6944C37.7989 94.7269 38.0214 94.7676 38.2465 94.7893L38.9138 94.8599Z" fill="#FCE6FE"/>
<path d="M16.6819 48.7604C16.5517 48.7577 16.4215 48.7496 16.2859 48.7415C16.2398 48.9747 16.1883 49.2107 16.1367 49.4494C16.2669 49.4521 16.3971 49.4548 16.5246 49.4576C16.5761 49.227 16.6304 48.9937 16.6819 48.7604Z" fill="#FCE6FE"/>
<path d="M2.08057 62.8167C2.12668 62.8574 2.17279 62.9306 2.21891 62.9333C2.25959 62.9333 2.30842 62.8601 2.35453 62.8167C2.27316 62.7516 2.19992 62.6919 2.12125 62.6295C2.10769 62.6892 2.09413 62.7543 2.08057 62.8167Z" fill="#FCE6FE"/>
<g clip-path="url(#clip1_1_1639)">
<path d="M57.2283 56.1597C58.5172 56.0257 59.4958 54.9029 59.4521 53.5558C59.4303 52.9083 59.1589 52.2944 58.6948 51.8424C58.2306 51.3905 57.6097 51.1356 56.9618 51.131H56.8715C55.4924 51.1747 54.4249 52.3427 54.4686 53.7349C54.5152 54.4092 54.7817 54.9917 55.1822 55.3951C53.6691 58.4053 51.3565 60.6043 47.8861 62.4451C45.5298 63.7034 43.0832 64.1519 40.638 63.8374C38.6356 63.5679 37.0788 62.6694 36.1002 61.1883C34.6774 58.9893 34.5448 56.6082 35.7448 54.2286C36.5895 52.5233 37.9249 51.265 38.7696 50.6374C38.5405 49.8834 38.3476 49.1189 38.1914 48.3466C31.7414 53.0621 32.4099 59.4378 34.3643 62.4466C35.8322 64.6922 38.8118 66.0844 42.1045 66.0844C43.0035 66.0905 43.8996 65.9849 44.7725 65.7699C50.4667 64.6485 54.7803 61.2349 57.2269 56.1611L57.2283 56.1597ZM65.056 50.5922C61.6759 46.5961 56.6939 44.3956 51.0011 44.3956H50.289C50.0862 43.9914 49.7751 43.6514 49.3905 43.4135C49.0058 43.1757 48.5626 43.0493 48.1104 43.0485H48.0201C46.6424 43.0937 45.5735 44.2616 45.6186 45.6539C45.6623 47.0009 46.7749 48.0772 48.1089 48.0772H48.1992C48.669 48.0529 49.1224 47.8968 49.5077 47.6269C49.893 47.357 50.1945 46.9842 50.3778 46.5509H51.1788C54.5589 46.5509 57.7613 47.5383 60.6521 49.4694C62.8759 50.9519 64.4778 52.8815 65.3662 55.2175C66.1235 57.1019 66.0798 58.9427 65.2788 60.5155C64.0322 62.8951 61.9424 64.1971 59.1842 64.1971C57.406 64.1971 55.7152 63.6582 54.8254 63.2534C54.1852 63.8245 53.5174 64.364 52.8244 64.8699C54.7366 65.7684 56.6939 66.2621 58.5623 66.2621C62.8322 66.2621 65.9895 63.8825 67.1909 61.5029C68.4798 58.899 68.3909 54.4092 65.056 50.5922ZM42.4613 56.9228C42.505 58.2699 43.6176 59.3476 44.9516 59.3476H45.0405C46.4196 59.3039 47.4871 58.1359 47.4434 56.7437C47.4216 56.0962 47.1502 55.4822 46.686 55.0303C46.2219 54.5783 45.6009 54.3234 44.9531 54.3189H44.8628C44.757 54.3119 44.6509 54.3268 44.5511 54.3626C42.7278 51.3102 41.972 47.9883 42.2385 44.3956C42.4162 41.7014 43.306 39.367 44.8628 37.4359C46.1531 35.7757 48.6434 34.9675 50.3342 34.9223C55.0482 34.832 57.0492 40.7592 57.1832 43.1388C57.7613 43.2728 58.74 43.5874 59.407 43.8116C58.8725 36.5388 54.4264 32.767 50.155 32.767C46.1531 32.767 42.4613 35.6854 40.9934 39.9961C38.9473 45.7427 40.2812 51.265 42.773 55.6209C42.5502 55.9354 42.4162 56.4291 42.4613 56.9228Z" fill="black"/>
</g>
</g>
<defs>
<clipPath id="clip0_1_1639">
<rect width="100" height="100" fill="white"/>
</clipPath>
<clipPath id="clip1_1_1639">
<rect width="34.9515" height="34.9515" fill="white" transform="translate(33.0098 32.0388)"/>
</clipPath>
</defs>
</svg>
