<svg width="88" height="88" viewBox="0 0 88 88" fill="none" xmlns="http://www.w3.org/2000/svg">
<g clip-path="url(#clip0_53_222)">
<path d="M60.5637 79.939L60.9122 79.8029L61.0912 79.7313C60.8 79.8435 60.5064 79.9533 60.208 80.0584L60.5637 79.939Z" fill="#AAF4EB"/>
<path d="M87.618 52.1326C87.6085 52.1612 87.6085 52.1779 87.6013 52.2066C87.6682 52.2806 87.7231 52.3498 87.7636 52.4119L87.618 52.1326Z" fill="#AAF4EB"/>
<path d="M83.0254 24.1447C83.0707 24.1876 83.1161 24.2354 83.1662 24.3046C83.1137 24.2091 83.0684 24.1685 83.0254 24.1447Z" fill="#AAF4EB"/>
<path d="M14.704 41.9495C14.7017 41.9137 14.6945 41.8778 14.6945 41.842C14.6897 41.8969 14.6945 41.9304 14.704 41.9495Z" fill="#AAF4EB"/>
<path d="M66.1992 76.9576L66.0918 77.0842C66.1419 77.0364 66.1753 76.9958 66.1992 76.9576Z" fill="#AAF4EB"/>
<path d="M87.6228 44.0978C87.6395 43.871 87.6586 43.6538 87.6944 43.4724L87.8352 43.5011C87.945 42.9855 88.0119 42.489 87.9999 41.9972C87.988 41.5055 87.9379 41.0233 87.871 40.5316C87.7016 39.5481 87.4653 38.5384 87.2624 37.3521L87.5894 37.6242C87.7517 36.7625 87.1406 37.4619 87.112 36.476L87.4509 36.3662C86.8303 35.6 87.3602 35.2443 87.3865 34.6142L86.9998 34.9865L86.8375 33.8694C86.773 33.2464 86.8589 33.0244 87.0046 32.9719C87.1502 32.917 87.3626 33.034 87.5011 33.0936C87.3101 32.8478 87.1096 32.6067 86.9162 32.3656L87.26 32.0887C86.625 31.6256 87.1764 31.4538 86.5725 30.4918C86.6895 30.3557 86.8637 30.5896 86.804 30.2125L86.2383 29.451L85.6368 28.7182C85.8469 29.0238 86.0712 29.3245 86.2694 29.6396L85.6678 29.7255C85.2549 29.2839 85.1284 28.9331 85.052 28.5989C84.9732 28.2671 84.9493 27.9496 84.7035 27.6226C84.8324 27.7658 84.9684 27.9042 85.0878 28.0546C84.4266 26.9208 84.6199 26.7561 84.429 26.0233C84.429 26.2811 84.4242 26.6725 84.1354 26.2262C83.9277 25.8968 84.2261 25.9445 84.1163 25.5888C83.9205 25.6413 83.6675 25.4862 83.436 25.2165C83.2068 24.9443 82.9991 24.5553 82.8607 24.1495C82.9156 24.1304 82.9705 24.1184 83.0302 24.1471C82.8655 23.9943 82.7222 23.9513 82.6148 23.579L83.1066 23.5408L82.3809 23.135C82.2401 22.6528 81.5717 22.2518 81.8605 22.1348L82.0849 22.3162C81.4571 21.2659 80.772 20.2515 80.044 19.2656L80.2875 19.0007C79.9819 19.0126 79.705 18.5949 79.4496 18.2296C79.1966 17.8644 78.9412 17.5804 78.7598 17.8262C78.65 17.461 78.1606 16.9788 77.7692 16.6017C77.3777 16.2245 77.1103 15.9142 77.4947 15.814C77.2846 15.592 77.0793 15.3915 76.8764 15.2077C76.6664 15.031 76.4587 14.8687 76.2534 14.7136C75.9121 14.4629 75.5826 14.2266 75.2413 14.0022C75.1649 13.9235 75.0862 13.8423 75.0074 13.7635C74.8427 13.594 74.678 13.4246 74.5133 13.2551C74.3486 13.0856 74.1839 12.9161 74.0168 12.7467C73.8449 12.5843 73.6706 12.422 73.4988 12.2597C73.3269 12.0974 73.1527 11.9327 72.9784 11.7704C72.8065 11.6057 72.6323 11.4409 72.4485 11.2906C72.0881 10.9803 71.7252 10.6676 71.3624 10.3572C71.2741 10.2785 71.1786 10.2021 71.0855 10.1305L70.8014 9.90848L70.2357 9.46449C70.0448 9.31889 69.861 9.16373 69.6652 9.02528L69.078 8.60755L68.4884 8.18982C68.3906 8.1206 68.2927 8.04899 68.1924 7.98215L67.8869 7.78642C67.4811 7.52623 67.0753 7.26366 66.6671 7.00109C65.8293 6.51652 64.9986 6.01047 64.1273 5.58081L63.4781 5.24424L63.3157 5.16069L63.1486 5.08431L62.8169 4.93154C62.3729 4.73103 61.9337 4.51858 61.4849 4.32523C61.0314 4.14382 60.5778 3.96002 60.1243 3.7786C60.0097 3.73325 59.8975 3.68551 59.7829 3.64493L59.4368 3.52558L58.7422 3.28449C56.8851 2.6567 54.9803 2.13633 53.0372 1.80692C52.2256 1.6637 51.4069 1.54674 50.5857 1.44887C50.538 1.41307 50.4903 1.38203 50.4449 1.36532C50.0511 1.20778 49.6596 1.03114 49.2609 0.868824C48.8623 0.713668 48.4565 0.587155 48.0483 0.503609C48.0436 0.503609 48.0388 0.501222 48.034 0.501222C48.0078 0.472578 47.9839 0.436773 47.9552 0.410516C47.7022 0.195683 47.3394 0.124073 46.7761 0.288777C46.566 0.35084 46.3488 0.391419 46.1268 0.412903C45.9048 0.436773 45.6756 0.455869 45.4465 0.455869C44.9882 0.460643 44.5227 0.412903 44.0811 0.362775C43.6419 0.329357 43.2027 0.284003 42.7635 0.236263C42.5439 0.21478 42.3243 0.183748 42.1047 0.164652L41.4458 0.114525C41.0066 0.0834933 40.565 0.0429139 40.1234 0.0214307C39.6818 0.0118826 39.2402 0.0071086 38.7962 0.0118826C36.6742 0.0620101 34.5569 0.353227 32.4682 0.792439C32.9361 0.833019 33.5066 0.849728 34.1463 0.84018C34.4662 0.828245 34.8075 0.84018 35.1632 0.837793C35.3589 0.837793 35.5618 0.835406 35.7647 0.833019C35.6907 0.933274 35.6167 1.03353 35.5427 1.13617C35.7218 1.04308 35.9008 0.947596 36.0822 0.866437C36.0726 0.854502 36.0631 0.842567 36.0536 0.828245C36.1252 0.825858 36.1944 0.825858 36.2636 0.823471C36.6431 0.821083 37.0346 0.833019 37.4333 0.830632C37.6314 0.830632 37.8343 0.830632 38.0348 0.830632C38.135 0.830632 38.2377 0.828245 38.3403 0.830632C38.443 0.835406 38.5432 0.837793 38.6459 0.842567C39.054 0.856889 39.467 0.868824 39.88 0.875985L40.1903 0.883146C40.2929 0.885533 40.3955 0.895081 40.5006 0.899855C40.7059 0.91179 40.9111 0.923725 41.1164 0.935661C41.3217 0.945209 41.5246 0.957144 41.7275 0.966692C41.9304 0.978627 42.1309 0.981014 42.3314 1.0025C42.7301 1.03592 43.1215 1.06933 43.5034 1.09559C43.6944 1.10991 43.883 1.12185 44.0692 1.13617C44.253 1.15527 44.4368 1.17436 44.6134 1.19346C44.6444 1.19585 44.6731 1.19823 44.7041 1.20301C44.5323 1.20539 44.3604 1.21017 44.1885 1.22449L43.9689 1.23881C43.9594 1.23404 43.9498 1.23165 43.9403 1.22449C43.6873 1.07411 43.2934 1.08127 42.9926 1.17436C42.668 1.26268 42.3505 1.33191 42.0354 1.38442C41.8922 1.40829 41.749 1.425 41.6058 1.44171L41.4864 1.45603C41.3575 1.47035 41.2262 1.48468 41.0973 1.499C40.787 1.52764 40.4767 1.54196 40.1664 1.54435C40.0112 1.54435 39.8585 1.54196 39.7033 1.53719C39.5482 1.53003 39.3954 1.53242 39.2402 1.52764C38.9323 1.51809 38.622 1.499 38.3141 1.47035C38.1589 1.45603 38.0037 1.44171 37.8486 1.42261C37.6934 1.4059 37.5383 1.39636 37.3831 1.38203C37.0704 1.35339 36.7577 1.32236 36.445 1.28655L35.9724 1.23404C35.8148 1.21733 35.6573 1.21017 35.4998 1.19585C35.5165 1.17675 35.526 1.15765 35.5427 1.13617C35.5069 1.15527 35.4735 1.17198 35.4377 1.19107L35.4759 1.22926C35.0868 1.37249 34.6357 1.35578 34.1869 1.47513C33.7381 1.60164 33.2942 1.87853 32.9504 2.56361C33.213 2.55645 33.4565 2.55406 33.6856 2.55168C33.8002 2.55168 33.91 2.55168 34.0174 2.54929C34.1248 2.5469 34.2275 2.54929 34.3301 2.55406C34.7383 2.56838 35.1035 2.57316 35.4663 2.54213C35.6478 2.5278 35.8292 2.50632 36.0106 2.48245C36.0703 2.47768 36.1275 2.47052 36.1872 2.46336C35.939 2.53019 35.6883 2.59225 35.4401 2.66387C35.2038 2.7307 34.9627 2.79038 34.7288 2.86438L34.027 3.09592L33.3252 3.32746L32.9743 3.44442L32.6306 3.57809C32.5709 3.60197 32.5112 3.62345 32.4515 3.64732C32.1651 3.71177 31.8786 3.77383 31.5922 3.83351L31.3225 3.88841L31.0551 3.95524L30.518 4.08176L29.9452 4.21304L29.6587 4.27988C29.5632 4.30136 29.4701 4.33239 29.3747 4.35626L28.2361 4.67374L27.952 4.75251C27.8565 4.77877 27.7634 4.81219 27.6703 4.84322L27.107 5.02702L26.5437 5.21321L26.262 5.3063C26.1689 5.33972 26.0758 5.37552 25.9827 5.41133L24.8703 5.83622L24.5911 5.94363L24.3166 6.06299L23.7675 6.30169L23.2185 6.54278C23.1278 6.58336 23.0347 6.62155 22.944 6.66452L22.6743 6.79819L21.5954 7.33288C20.1775 8.08479 18.7739 8.90354 17.4515 9.85835L16.9478 10.1997C16.7807 10.3167 16.6232 10.4479 16.4609 10.5697L15.4917 11.3288C15.1766 11.5913 14.8687 11.8635 14.556 12.1332L14.0906 12.5414C13.9402 12.6822 13.7922 12.8254 13.6418 12.9686C13.3267 13.2742 13.0092 13.5773 12.6989 13.8876L11.7942 14.852C11.4863 15.1695 11.2094 15.5132 10.9206 15.8498C10.6365 16.1887 10.3382 16.5205 10.0732 16.8762L9.25444 17.9337C8.98948 18.2917 8.73646 18.6593 8.47627 19.0245C8.34737 19.2083 8.21609 19.3897 8.08958 19.5759L7.72436 20.1416L7.35915 20.7074C7.2398 20.8983 7.1109 21.0821 6.99871 21.2803L6.30886 22.4475L6.13699 22.7411L5.97467 23.0395L5.65243 23.6386C5.20605 24.4335 4.82174 25.2618 4.41117 26.0829C4.21782 26.4983 4.03402 26.9208 3.84306 27.3409L3.55901 27.9735L3.29643 28.6156C3.12457 29.0452 2.94077 29.4749 2.77129 29.9093C2.60897 30.3486 2.44665 30.7854 2.28434 31.2246C2.10292 31.6853 2.08621 32.1961 2.00028 32.6902C2.1984 32.1985 2.38459 31.7092 2.6042 31.2294C2.65194 31.1196 2.69968 31.0122 2.74742 30.9023L2.38459 32.1102C2.24853 32.5375 2.15066 32.9767 2.03847 33.4111C1.93344 33.8479 1.81171 34.2824 1.72816 34.7264L1.45604 36.0535C1.37488 36.4975 1.30804 36.9463 1.23643 37.3951C1.20063 37.6194 1.16244 37.8438 1.1314 38.0682L1.05025 38.7461L0.969087 39.424C0.945216 39.6508 0.909411 39.8776 0.895089 40.1043L0.787673 41.4721L0.761416 41.8158L0.747093 42.1595L0.718449 42.847C0.665935 43.766 0.682644 44.685 0.673096 45.6136C0.680257 46.0767 0.699353 46.5373 0.713675 47.0028L0.735158 47.7022L0.780512 48.3992C0.81393 48.8647 0.835413 49.3326 0.873606 49.8004C0.918959 50.2683 0.964313 50.7361 1.00967 51.204C1.04786 51.7005 1.25553 52.1636 1.39159 52.6457C1.35578 52.1134 1.30804 51.5883 1.29611 51.0584C1.27701 50.5285 1.25076 50.0057 1.23405 49.4829C1.22927 48.9626 1.2245 48.4398 1.21972 47.9194C1.21972 47.7905 1.21495 47.6616 1.21734 47.5303L1.22689 47.1413L1.24598 46.3679L1.26508 45.5992L1.31043 44.8306L1.3534 44.0668L1.37488 43.6872L1.41069 43.3077L1.55152 41.7967L1.74726 40.3001C2.0337 38.3164 2.43233 36.371 2.94793 34.4781C3.47785 32.5876 4.13189 30.7544 4.91006 28.9975C4.87903 29.1956 4.83368 29.389 4.79787 29.5847C4.75968 29.7804 4.7191 29.9738 4.67136 30.1648C4.57827 30.5491 4.45891 30.9238 4.34434 31.3034C4.23692 31.6829 4.11757 32.0624 3.99583 32.4396C3.93854 32.6306 3.86932 32.8167 3.81919 33.0101L3.66404 33.5877C3.56617 33.9744 3.46353 34.3588 3.39669 34.7526C3.33463 35.1465 3.28689 35.5403 3.26302 35.939C3.25347 36.1371 3.24153 36.3352 3.25347 36.5357C3.26302 36.7362 3.27973 36.9367 3.30598 37.1373C3.3585 37.5383 3.43727 37.9393 3.57333 38.3355C3.69745 37.913 3.83113 37.4953 3.95048 37.08L4.12951 36.4569C4.19395 36.2493 4.2584 36.044 4.32047 35.8387C4.38253 35.6334 4.44221 35.4258 4.49949 35.2205C4.55678 35.0152 4.61168 34.8075 4.67852 34.6046C4.80503 34.1964 4.922 33.7859 5.0318 33.3777C5.08431 33.1676 5.15354 32.9623 5.21799 32.7547L5.41134 32.1364L5.60469 31.5206L5.8219 30.9119L6.03912 30.3056L6.14893 30.0024C6.18473 29.9022 6.2277 29.8043 6.26828 29.7041L6.75523 28.5153C7.44269 26.9494 8.21848 25.4361 9.11122 24.0062C10.0183 22.586 11.0185 21.2421 12.1308 20.0199C12.4101 19.7168 12.7037 19.4255 12.9925 19.1319C13.1334 18.9935 13.2694 18.8503 13.415 18.7142C13.0307 19.268 12.6583 19.8313 12.3027 20.4042L11.7799 21.1108L11.4624 21.5428C11.355 21.6861 11.2619 21.8388 11.1593 21.9868L10.5578 22.882C10.4551 23.0299 10.3644 23.1851 10.2689 23.3379L9.98726 23.7986L9.7032 24.2617L9.56237 24.4932L9.43108 24.7295C9.08019 25.3645 8.7102 25.9946 8.39034 26.6511C7.26844 28.8471 6.24679 31.1482 5.4543 33.5854C4.6642 36.0201 4.10802 38.5838 3.92422 41.2095C3.86455 41.8134 3.84784 42.4245 3.82874 43.0427L3.81919 43.5058L3.81681 43.7374L3.82635 43.9689C3.84068 44.2768 3.86455 44.5872 3.89558 44.8951C3.91229 45.0478 3.93138 45.203 3.95287 45.3558C3.97435 45.5085 3.99583 45.6613 4.03164 45.8117C4.09847 46.1148 4.17963 46.4132 4.27511 46.7068C4.33718 46.893 4.4064 47.0792 4.4804 47.2606C4.52098 48.5186 4.6093 49.7813 4.75968 51.0512C4.7382 51.1586 4.72149 51.266 4.71671 51.3735C4.71433 51.5024 4.72387 51.6265 4.75013 51.7434C4.83845 52.1349 4.92916 52.5264 5.02703 52.9179C5.39463 55.0924 5.96513 57.2575 6.80058 59.3342C7.01064 59.8999 7.26128 60.4537 7.50953 61.0123L7.70288 61.43L7.80313 61.6377L7.91294 61.8406C8.06093 62.1079 8.2137 62.3729 8.37602 62.6331C8.45718 62.762 8.54072 62.8908 8.62666 63.0174C8.71259 63.1439 8.79852 63.2704 8.89639 63.3873C9.08735 63.6237 9.29025 63.8528 9.5027 64.0724C9.71753 64.2896 9.93952 64.4973 10.183 64.6859C10.257 64.7408 10.3358 64.7909 10.4121 64.8434C10.837 65.4808 11.281 66.1086 11.7417 66.722C11.7417 66.7674 11.7417 66.808 11.7393 66.8557C11.7202 67.1063 11.7417 67.3832 11.8014 67.6482C11.8324 67.7795 11.873 67.9084 11.9231 68.0277C11.9757 68.1447 12.0401 68.2497 12.1141 68.3404C12.465 68.7725 12.8183 69.2117 13.1883 69.6318C13.5654 70.0424 13.9497 70.4505 14.3388 70.8563C14.7374 71.2478 15.148 71.6297 15.5562 72.0141C15.7591 72.2098 15.9763 72.384 16.1864 72.5678L16.8261 73.1121C16.9621 73.2219 17.1125 73.315 17.2963 73.3961C17.4801 73.4773 17.6878 73.5632 17.9265 73.6778C17.862 73.4128 17.7403 73.2004 17.5923 73.0094C17.9504 73.3197 18.3084 73.6253 18.676 73.9237C18.6712 73.9141 18.6665 73.9022 18.6617 73.8926C18.6569 73.8879 18.6498 73.8855 18.6426 73.8831C18.6474 73.8831 18.6522 73.8807 18.6569 73.8783C18.4779 73.4033 18.3227 72.8949 18.1318 72.279C18.3275 72.2122 18.5042 72.131 18.6665 72.0594C19.0556 72.4294 19.4518 72.7922 19.8552 73.1479C19.7621 73.2816 19.6595 73.4128 19.5568 73.5083C19.3348 73.7208 18.9672 73.7661 18.6569 73.8783C18.6593 73.8831 18.6593 73.8879 18.6593 73.8926C19.1272 74.1027 19.5807 74.4035 20.0486 74.5705C20.0605 74.6278 20.0653 74.6875 20.0796 74.7424C20.156 75.036 20.2682 75.3058 20.4233 75.5325C20.7313 75.9932 21.1705 76.3656 21.7075 76.6998C23.5479 77.8097 25.4838 78.7717 27.4913 79.5714C27.5462 79.6 27.6011 79.6287 27.656 79.6573C27.8398 79.7504 28.026 79.8459 28.2146 79.9437C28.4055 80.0368 28.6037 80.1228 28.8018 80.2159C29.2004 80.3973 29.6158 80.5811 30.043 80.7697C30.4751 80.9439 30.9214 81.111 31.3774 81.2852C31.6065 81.3712 31.8381 81.4595 32.0744 81.5407C32.3107 81.617 32.5518 81.6934 32.7929 81.7698C33.0364 81.8462 33.2798 81.9226 33.5257 81.999C33.7716 82.0753 34.0222 82.1541 34.2752 82.2162C34.7813 82.3475 35.2969 82.4764 35.8196 82.6029L36.0154 82.6506L36.2135 82.6912C36.3448 82.7175 36.4784 82.7437 36.6097 82.77C36.8747 82.8201 37.142 82.8726 37.4094 82.9228C37.6767 82.9705 37.9465 83.0278 38.2162 83.066C38.4883 83.1018 38.758 83.14 39.0302 83.1758C39.3023 83.2116 39.5768 83.245 39.8489 83.2808C39.985 83.2975 40.1234 83.3166 40.2595 83.3285L40.6724 83.3596C41.2215 83.4025 41.7729 83.4383 42.3243 83.4718C42.4699 83.4765 42.6131 83.4742 42.7587 83.4789C43.8138 83.5911 44.8712 83.6603 45.9287 83.6794C48.3228 83.7319 50.7218 83.5768 53.0945 83.2116C56.2812 82.7079 59.4058 81.8104 62.3967 80.5596C62.0697 80.7386 61.7403 80.9153 61.4181 81.1014C61.0648 81.3067 60.7139 81.5096 60.3654 81.7125C60.0193 81.9202 59.6827 82.1374 59.3581 82.3761C59.1719 82.5098 58.9881 82.6482 58.7995 82.7724C58.6085 82.8941 58.4176 83.0135 58.2242 83.1304C57.8375 83.362 57.446 83.5792 57.0522 83.7821C56.8565 83.8871 56.6512 83.973 56.4507 84.059C56.2478 84.1449 56.0449 84.2284 55.8396 84.3072C55.429 84.4624 55.0185 84.6104 54.6007 84.725C54.1806 84.8348 53.7557 84.9278 53.3308 84.9995C52.9059 85.0711 52.481 85.1355 52.0466 85.1498C51.6146 85.1713 51.1825 85.1737 50.7505 85.1546C50.5332 85.1451 50.3184 85.1331 50.1036 85.1093C49.8863 85.083 49.6691 85.0496 49.4519 85.0138C49.0939 84.9517 48.7119 84.9159 48.3515 84.9565C47.9457 85.0066 47.5375 85.0281 47.1293 85.052C46.7212 85.0758 46.3154 85.0949 45.912 85.114C45.5062 85.1284 45.1004 85.1212 44.6946 85.1236C44.2888 85.1212 43.8878 85.1284 43.4844 85.114L42.2789 85.0639L41.6798 85.04C41.4816 85.0353 41.2811 85.0138 41.0806 85.0018C40.2834 84.9398 39.4909 84.9064 38.7008 84.8252C35.8196 84.5889 32.9838 84.09 30.2364 83.3142C28.9283 82.9442 27.6393 82.5122 26.3789 82.0181C26.0686 81.8534 25.7559 81.691 25.4504 81.5168L24.3977 80.9033L23.8726 80.6002C23.6959 80.5023 23.5288 80.3877 23.357 80.2827C22.6719 79.8506 21.9797 79.4472 21.3113 79.0009C18.8455 77.4302 16.5325 75.6447 14.42 73.6587C12.3074 71.6727 10.3954 69.4814 8.73407 67.1183C8.44763 66.7101 8.15641 66.2303 7.75778 65.994C7.55727 65.8722 7.36631 65.741 7.18728 65.6025C7.01303 65.4569 6.84832 65.3041 6.69078 65.1418C6.37569 64.8196 6.09403 64.4663 5.83623 64.0963C5.58798 63.7168 5.36598 63.3181 5.15593 62.9123C5.0509 62.7094 4.94825 62.5041 4.84561 62.2989C4.74774 62.0912 4.65704 61.8787 4.56156 61.6663C4.36343 61.2128 4.12473 60.7807 3.86455 60.2985C3.61391 59.8092 3.33224 59.2769 3.02431 58.6419C3.01238 59.2769 2.95748 59.4941 3.01954 59.6588C3.40146 60.6447 3.81681 61.621 4.26557 62.5853C4.19157 62.614 4.11518 62.6402 4.04119 62.6689C4.16054 62.9195 4.2775 63.1725 4.39685 63.4232L4.57827 63.8003L4.77161 64.1703C4.84084 64.1321 4.91245 64.0939 4.98167 64.0557C5.62378 65.3065 6.33511 66.5263 7.12045 67.6959C7.03213 67.7103 6.91277 67.7628 6.81729 67.7842C6.91994 67.9466 7.00587 68.1256 7.13477 68.2593C7.17773 68.3046 7.32334 68.2354 7.46895 68.1996C7.55727 68.3261 7.64082 68.4526 7.73152 68.5767C9.50508 71.0616 11.5341 73.3699 13.7755 75.4657C13.7039 75.4108 13.6322 75.3583 13.5582 75.3034C13.8208 75.8739 13.8686 76.0959 13.9975 76.2128C16.4298 78.4304 19.1128 80.4259 22.0704 81.9417C23.3832 82.6196 24.7319 83.2307 26.1092 83.7749C28.6944 84.9827 31.3989 85.9781 34.1917 86.7372C37.0585 87.5178 40.0232 87.9379 43.026 87.9999C46.0313 88.062 49.0843 87.7589 52.0824 87.1024C55.0805 86.446 58.0261 85.4387 60.8404 84.121C63.6547 82.8034 66.3401 81.1754 68.8489 79.2921C71.7849 77.0793 74.4417 74.4631 76.769 71.5581C76.9194 71.3815 77.0555 71.1929 77.1987 71.0067L77.6212 70.4482L78.0389 69.8872C78.1773 69.701 78.3182 69.5148 78.4495 69.3191L79.2372 68.1614L79.6263 67.579L79.9963 66.9822L80.1538 66.7244C80.3615 66.5764 80.5119 66.4141 80.4713 66.204L80.7291 65.7839C80.8365 65.6121 80.9344 65.433 81.0322 65.254C81.4309 64.6692 81.8223 64.0748 82.1971 63.4685C82.2281 63.4876 82.2472 63.4948 82.2353 63.4088C82.3069 63.2919 82.3833 63.1797 82.4549 63.0603C83.0779 62.022 83.658 60.9502 84.1974 59.8545L84.2404 59.8307C84.7273 59.1862 84.8658 58.7279 85.0114 58.186C85.0233 58.1407 85.0329 58.0905 85.0448 58.0428C85.3217 57.4126 85.5867 56.7753 85.8349 56.1284C85.928 55.8873 86.0283 55.6391 86.1094 55.386C86.1237 55.3359 86.1381 55.2858 86.1548 55.238C86.5439 54.8418 86.8876 54.8323 86.9926 55.4266C86.9282 54.8585 86.8733 54.7201 86.8733 54.553C86.8709 54.3859 86.9139 54.1901 86.9926 53.5075C87.2528 53.369 87.2552 53.517 87.3483 53.8607C87.6419 53.3165 87.6467 53.1208 87.6085 52.9537C87.5727 52.789 87.4987 52.6529 87.6156 52.2113C87.4056 51.975 87.1 51.7005 86.9306 51.4618C86.9329 51.4331 86.9353 51.4021 86.9353 51.3758C86.9353 51.2374 86.9282 51.1204 86.9138 51.0321C86.8852 50.8555 86.8279 50.7863 86.742 50.8602C86.7086 50.8889 86.6656 50.9462 86.6226 51.0202C86.6346 50.6741 86.6513 50.3184 86.7086 49.9651C86.7921 49.4662 86.8971 48.9554 87.0738 48.435L87.2624 48.5066C87.2838 48.1199 87.3244 47.7356 87.3268 47.3465L87.5846 47.306C87.6133 46.7522 87.6586 46.1984 87.6705 45.647L87.5894 45.869C87.5846 45.6732 87.5798 45.2555 87.5965 44.7972C87.5846 44.5633 87.5989 44.3246 87.6228 44.0978ZM7.2016 24.6197L7.12999 24.7462L7.06554 24.8751L6.93426 25.1329C6.76 25.479 6.58575 25.8251 6.41389 26.1689C6.27067 26.0925 6.12983 26.0185 5.98661 25.9421C6.36376 25.2547 6.72181 24.56 7.13715 23.8988C7.25651 23.9728 7.3687 24.042 7.48566 24.116C7.39257 24.2855 7.29708 24.4526 7.2016 24.6197ZM38.1279 86.7229C37.9083 86.7229 37.6887 86.7038 37.4691 86.6871C37.2495 86.668 37.0322 86.6465 36.815 86.6202C36.383 86.5653 35.9533 86.5033 35.5284 86.4078C35.2587 86.3433 34.9913 86.2693 34.724 86.1906C35.5523 86.3362 36.3853 86.4603 37.2256 86.5582C37.7674 86.6226 38.3141 86.6728 38.8583 86.7181C38.6172 86.7229 38.3713 86.7253 38.1279 86.7229ZM10.8561 53.4358C10.849 53.4287 10.8394 53.4215 10.8323 53.4144C10.6771 53.2425 10.5291 53.0515 10.4074 52.8463C10.3477 52.7484 10.2976 52.6457 10.2546 52.5431C10.2403 52.4691 10.2236 52.3951 10.2093 52.3211C10.1782 52.1683 10.1448 52.0203 10.1114 51.87C10.0899 51.71 10.066 51.5477 10.0445 51.3902L9.99442 50.9868L9.97055 50.7862C9.96339 50.7194 9.961 50.6502 9.95623 50.5834L9.92281 50.0797C10.1806 51.1133 10.479 52.1349 10.8203 53.1446C10.8299 53.2401 10.8418 53.338 10.8561 53.4358ZM39.0421 80.087C38.918 80.0631 38.7939 80.0392 38.6697 80.0154C38.591 79.9055 38.5026 79.822 38.4024 79.7671C38.3523 79.7408 38.2997 79.7217 38.2448 79.7074C38.3188 79.7027 38.3952 79.7003 38.4692 79.6979L38.5575 79.717L38.7366 79.7504L39.097 79.8148C39.2378 79.8411 39.3787 79.8674 39.5195 79.8912C39.51 79.9127 39.5028 79.9342 39.4933 79.9557C39.4694 80.0225 39.4527 80.0917 39.4336 80.1586C39.3047 80.1371 39.1734 80.1108 39.0421 80.087ZM18.4278 68.0373C18.5519 68.159 18.676 68.2807 18.8001 68.4049L18.836 68.4383C18.8813 68.4908 18.9267 68.5409 18.972 68.5934C19.1367 68.782 19.3205 68.9658 19.4948 69.152C19.5807 69.2451 19.6643 69.343 19.743 69.4385C19.8242 69.5339 19.8982 69.6318 19.9626 69.7344C19.9793 69.7607 19.9937 69.7893 20.008 69.8156C19.8433 69.6509 19.6786 69.4862 19.5186 69.3191C18.9935 68.7605 18.4827 68.19 17.9909 67.6052C18.1366 67.7508 18.2798 67.8917 18.4278 68.0373ZM17.3655 65.9653L17.4324 66.0393C17.4348 66.0441 17.4372 66.0513 17.4372 66.056C17.4133 66.025 17.3894 65.9964 17.3655 65.9653ZM46.2127 79.39C46.1554 79.39 46.0981 79.3923 46.0409 79.3923C45.7305 79.3947 45.4107 79.3852 45.086 79.3852C44.9237 79.3852 44.759 79.3852 44.5943 79.3852C44.5108 79.3852 44.4296 79.3876 44.3461 79.3852C44.2625 79.3828 44.179 79.3804 44.0954 79.3756C43.7612 79.3637 43.4247 79.3541 43.0881 79.347L42.8351 79.3422C42.7515 79.3398 42.668 79.3327 42.5821 79.3279C42.415 79.3183 42.2455 79.3088 42.0784 79.2992C42.045 79.2969 42.0139 79.2969 41.9805 79.2945C41.9781 79.2921 41.9781 79.2921 41.9758 79.2897C41.8373 79.1489 41.6965 79.0415 41.558 78.9531L42.3768 79.0653C42.6012 79.1011 42.8279 79.1107 43.0523 79.1322L43.7278 79.1894L44.4057 79.2467C44.6325 79.2634 44.8569 79.2634 45.0837 79.273L46.2819 79.3112C46.2509 79.3255 46.2199 79.3446 46.1865 79.3589C46.1984 79.3709 46.2056 79.3804 46.2127 79.39ZM42.0975 78.8433C42.3505 78.8195 42.6035 78.8075 42.8566 78.8075C42.9831 78.8075 43.1072 78.8099 43.2337 78.8147C43.3602 78.8195 43.4844 78.8171 43.6109 78.8242C43.7827 78.829 43.9546 78.8433 44.1241 78.8553C44.3127 78.9197 44.4964 78.9794 44.6659 79.0271C43.7469 79.0104 42.8208 78.9579 41.8946 78.8672C41.9638 78.86 42.033 78.8505 42.0975 78.8433ZM39.0731 78.9364C39.288 78.8815 39.5147 78.9078 39.7773 79.0653C39.8274 79.0964 39.8871 79.1178 39.9492 79.1345C39.942 79.1417 39.9372 79.1489 39.9325 79.156C39.8465 79.1489 39.7582 79.1441 39.6747 79.1369C39.5243 79.1202 39.3763 79.1059 39.2307 79.0892C39.0851 79.0749 38.9395 79.0605 38.801 79.0486C38.8893 79.0009 38.98 78.9603 39.0731 78.9364ZM47.7356 78.8648C47.8359 78.8362 47.9361 78.798 48.034 78.7455C48.1486 78.7383 48.2608 78.7359 48.3754 78.7287C48.731 78.7216 49.1106 78.7359 49.5116 78.7669C48.6714 78.872 47.8192 78.9484 46.9599 78.9913C47.2081 78.946 47.4731 78.934 47.7356 78.8648ZM37.3736 77.8169C37.2017 77.867 37.0275 77.9267 36.8508 77.9935C36.784 77.9744 36.7148 77.953 36.6479 77.9339C36.6551 77.8264 36.6575 77.7286 36.6503 77.6379C36.8914 77.6999 37.1325 77.7596 37.3736 77.8169ZM20.1798 59.6278C20.2467 59.7638 20.3135 59.8999 20.3804 60.0336C20.292 60.0837 20.2037 60.1314 20.1154 60.1816C20.0868 60.0145 20.0557 59.8474 20.0271 59.6827C20.0772 59.6636 20.1273 59.6445 20.1798 59.6278ZM28.1477 74.3629C28.131 74.3271 28.1119 74.2889 28.0952 74.2507C28.532 74.4894 28.9736 74.7209 29.42 74.9429C29.4797 75.0169 29.5418 75.0862 29.6038 75.1554C29.1121 74.9024 28.6275 74.6374 28.1477 74.3629ZM36.6479 77.9434C36.7124 77.9601 36.7792 77.9792 36.8437 77.9959C36.7744 78.0222 36.7076 78.0437 36.636 78.0723C36.6431 78.027 36.6455 77.9864 36.6479 77.9434ZM52.567 79.0796L52.419 78.946C52.388 78.946 52.3593 78.946 52.3283 78.946L52.5455 79.0916C52.4214 79.1775 52.2925 79.2491 52.1564 79.304C51.9153 79.409 51.6575 79.4759 51.3854 79.5189C51.2493 79.5403 51.1085 79.5547 50.9653 79.5642C50.8221 79.5761 50.6741 79.5785 50.5213 79.5737C50.2181 79.5642 49.8959 79.6358 49.5856 79.7552C49.4304 79.8148 49.2777 79.8865 49.1297 79.9676C48.9841 80.0464 48.8432 80.1395 48.7119 80.223C48.7048 80.2278 48.7 80.2302 48.6928 80.235C47.9863 80.2779 47.2797 80.2994 46.5708 80.3042C46.5135 80.2684 46.461 80.2254 46.4013 80.1944C46.2628 80.118 46.1196 80.0535 45.974 79.9891C45.9239 79.9676 45.8714 79.9509 45.8213 79.9318C46.9312 79.822 48.0388 79.6478 49.1344 79.4162C48.7525 79.3828 48.287 79.3685 47.7643 79.378C47.5041 79.3876 47.2248 79.378 46.936 79.3804C46.7761 79.3804 46.6114 79.3828 46.4443 79.3852C46.461 79.3613 46.4777 79.3398 46.4944 79.316L47.7977 79.2897C48.0245 79.2825 48.2512 79.2849 48.478 79.2706L49.1559 79.2229L49.8338 79.1727C50.0606 79.1536 50.2874 79.1465 50.5117 79.1131L51.4904 78.9913C51.5 79.0224 51.5095 79.0534 51.5191 79.0868L51.9702 78.9937L52.1946 78.946L52.1994 78.9436C52.2423 78.9436 52.2853 78.946 52.3259 78.946C52.314 78.9364 52.302 78.9293 52.2901 78.9221L52.4166 78.8887C52.5001 78.8672 52.5813 78.8457 52.6648 78.8242L52.9059 78.7813C52.8009 78.8935 52.6887 78.9961 52.567 79.0796ZM48.1796 80.5333C48.0245 80.6073 47.8693 80.6622 47.7118 80.6909C47.5447 80.7219 47.3776 80.7243 47.2081 80.6885C47.1437 80.6742 47.0792 80.6551 47.0148 80.6312C46.9909 80.6097 46.9646 80.5906 46.9408 80.5691C47.2248 80.562 47.5089 80.5548 47.7882 80.5477C47.9194 80.5405 48.0483 80.5357 48.1796 80.5333ZM52.4118 78.2657C52.1397 78.3253 51.87 78.385 51.5955 78.4375C51.5835 78.4304 51.574 78.4208 51.562 78.4137L51.5358 78.3946C51.8198 78.3516 52.1039 78.3039 52.3856 78.2561C52.3927 78.2585 52.4023 78.2609 52.4118 78.2657ZM14.5322 34.9794C14.5656 35.0987 14.599 35.2157 14.63 35.335C14.6611 35.452 14.704 35.5714 14.7398 35.6883C14.8114 35.9223 14.8759 36.1514 14.9165 36.3782C14.9379 36.4904 14.9523 36.6026 14.9594 36.7147C14.9738 36.8269 14.9785 36.9391 14.9761 37.0513C14.9738 37.111 14.9642 37.1683 14.957 37.228C14.9284 37.3091 14.9045 37.3951 14.8711 37.469C14.7947 37.6385 14.7541 37.8176 14.7327 37.999C14.7016 38.0921 14.673 38.1852 14.642 38.2806C14.5823 38.4692 14.5274 38.6578 14.4749 38.8464C14.4486 38.9418 14.42 39.0373 14.4009 39.1328L14.346 39.4216C14.3125 39.615 14.2815 39.8083 14.2576 40.0041C14.2433 40.1115 14.2409 40.2213 14.2529 40.3335C14.2672 40.4457 14.2911 40.5579 14.3173 40.6748C14.3722 40.9087 14.4438 41.1546 14.494 41.4267C14.6825 41.3742 14.8568 41.3193 15.0239 41.262C14.9952 41.3957 14.9618 41.5174 14.9236 41.6201C14.8401 41.8803 14.7374 42.0163 14.704 41.9519C14.7923 43.1406 15.3461 44.2363 15.2316 45.8642C15.105 46.017 15.1003 46.3798 15.1552 46.8333C15.222 47.2869 15.3676 47.8287 15.5013 48.3515C15.6278 48.8074 15.7591 49.2442 15.8426 49.6023C15.7281 49.545 15.6135 49.4877 15.4893 49.4256C15.2435 50.0105 14.7852 50.5714 14.9117 51.0011C14.9666 51.204 15.0048 51.4045 15.031 51.6074C15.0573 51.8031 15.0692 51.9965 15.0859 52.1922C14.6969 51.1157 14.3555 50.0224 14.0715 48.9148C13.9712 48.4852 13.8686 48.0555 13.7683 47.6282C13.6895 47.1938 13.6084 46.7617 13.5296 46.3273C13.4389 45.8952 13.4007 45.456 13.3386 45.0192L13.2527 44.3628C13.236 44.253 13.2288 44.1432 13.2193 44.0334L13.193 43.704C13.1405 43.3483 13.088 42.9998 13.0307 42.6584C12.9973 42.489 12.9854 42.3171 12.9615 42.15C12.94 41.9829 12.9185 41.8158 12.897 41.6511C12.8541 41.3217 12.7992 41.0018 12.7538 40.6891C12.718 40.3764 12.6774 40.0709 12.6345 39.7725C12.6846 39.5314 12.7276 39.2689 12.7681 38.992C12.8254 38.7151 12.8779 38.4215 12.9281 38.1112C12.9519 37.956 12.9758 37.7985 13.0021 37.6361C13.0283 37.4738 13.0427 37.3067 13.0785 37.1396C13.1429 36.8031 13.2026 36.4522 13.2623 36.0893C13.2933 35.9079 13.3195 35.7241 13.353 35.5379C13.3864 35.3732 13.4222 35.2038 13.458 35.0343C13.7922 34.9746 14.1478 34.9555 14.5322 34.9794ZM17.4944 65.2707C17.5112 65.3853 17.535 65.4975 17.5613 65.6097C17.5064 65.5786 17.4491 65.5428 17.3894 65.5094C17.0934 65.1561 16.8022 64.8005 16.5158 64.4376C16.5277 64.3278 16.5468 64.2156 16.5778 64.1011C16.8762 64.4973 17.1817 64.8864 17.4944 65.2707ZM29.1049 75.4538C28.988 75.3702 28.871 75.2867 28.766 75.1864C28.606 75.0384 28.4676 74.8689 28.3411 74.6875C28.8853 74.9811 29.4343 75.2652 29.9929 75.5301C30.1719 75.6877 30.3557 75.8309 30.5467 75.9431C30.7902 76.0911 31.036 76.2152 31.2819 76.3298C31.406 76.3871 31.5278 76.442 31.6519 76.4969C31.776 76.547 31.9025 76.5947 32.0266 76.6425C32.2558 76.7332 32.4993 76.8096 32.7356 76.8955C32.8526 76.9385 32.9695 76.9862 33.0817 77.034C33.1963 77.0817 33.3037 77.1342 33.4063 77.1963C33.4087 77.1987 33.4135 77.201 33.4159 77.2034C33.2464 77.1485 33.0745 77.0936 32.9051 77.0363C31.6041 76.5757 30.3175 76.0744 29.1049 75.4538ZM55.5746 78.4805C56.2167 78.5497 56.5724 78.5091 56.7944 78.4256C56.9161 78.5688 57.0784 78.7264 57.2981 78.9651C57.3744 78.4089 57.4341 78.0938 57.4484 77.9458C57.5248 77.9219 57.6227 77.91 57.754 77.9172C57.9306 77.941 58.1073 77.9649 58.2839 77.9888C58.2839 78.0508 58.2815 78.1129 58.2863 78.175C58.26 78.1988 58.2385 78.2179 58.2147 78.2394C58.0882 78.2633 57.9616 78.2871 57.8351 78.311C57.9449 78.3086 58.0428 78.3086 58.1407 78.3062C57.8065 78.6118 57.532 78.8505 57.3028 79.0128C57.1715 79.1083 57.0522 79.1727 56.94 79.2157C56.8278 79.2587 56.7252 79.2778 56.6249 79.2754C56.2955 79.261 56.0043 78.9985 55.5746 78.4805ZM11.2476 54.8681C11.2524 54.8824 11.2595 54.8991 11.2643 54.9134C11.3526 55.1473 11.4577 55.3932 11.5364 55.6391C11.577 55.7608 11.6057 55.8849 11.6295 56.0043C11.6534 56.1236 11.6653 56.243 11.6582 56.3576C11.6558 56.3814 11.6558 56.4077 11.6558 56.4316C11.5531 56.1976 11.4481 55.9637 11.3503 55.7274C11.2404 55.4672 11.1354 55.2022 11.0304 54.9397C11.1068 54.9206 11.1784 54.8991 11.2476 54.8681ZM11.9112 60.0837C11.7942 59.8832 11.6892 59.6731 11.5866 59.4655C11.4815 59.2578 11.3765 59.0501 11.2739 58.8448C11.1688 58.6372 11.0638 58.4319 10.9612 58.2266C10.8561 58.0213 10.7678 57.8065 10.6723 57.5988C10.4814 57.1787 10.2928 56.761 10.1018 56.3456C10.2785 56.7276 10.4551 57.1071 10.6318 57.4866L10.8967 58.0547C10.9898 58.2433 11.0901 58.4247 11.1855 58.6109C11.3789 58.9809 11.5722 59.3509 11.7656 59.7185C11.9661 60.0837 12.1833 60.437 12.391 60.7974C12.4149 60.838 12.4387 60.8786 12.4626 60.9192C12.3838 60.8332 12.3051 60.7449 12.2311 60.6518C12.1236 60.4632 12.0186 60.2723 11.9112 60.0837ZM62.1389 77.3968C62.7285 77.2154 63.2274 76.9862 63.8194 76.7475C63.8361 76.7404 63.8552 76.7332 63.8719 76.726L63.6595 76.8358C63.2943 77.0149 62.9219 77.1796 62.5543 77.3514C62.1031 77.571 61.6401 77.762 61.1746 77.9482C61.5016 77.7692 61.8215 77.583 62.1389 77.3968ZM54.9516 81.5765C55.071 81.5311 55.1903 81.4834 55.3049 81.4356C55.6534 81.2948 55.9828 81.1563 56.2907 81.0203C56.4435 80.9511 56.5939 80.8842 56.7371 80.8198C56.8803 80.7529 57.014 80.6789 57.1453 80.6097C57.279 80.5381 57.4079 80.4665 57.5296 80.3973L58.229 80.1872C58.3364 80.1538 58.4462 80.1228 58.5512 80.087L58.8711 79.9748L59.5084 79.748C61.7904 78.9483 63.9889 77.9195 66.0919 76.7213C66.2231 76.7547 66.2852 76.8239 66.2017 76.9576L66.5931 76.4921C67.4453 76.0959 68.054 75.7354 68.5767 75.4585C69.1019 75.1864 69.5053 74.931 69.9326 74.7018C70.1999 74.5562 70.4744 74.4106 70.7728 74.2483C69.8251 74.9907 68.8608 75.6805 67.8678 76.3179C65.9224 77.5663 63.8695 78.6333 61.609 79.5308L61.6138 79.5284L62.3108 79.2539C62.5447 79.1632 62.7691 79.0534 62.9983 78.9531C63.4542 78.7455 63.9125 78.5449 64.3636 78.3301L65.7004 77.6474L66.0346 77.4756C66.1444 77.4159 66.2518 77.3514 66.3616 77.2894L67.0132 76.9146L67.5575 76.6019C66.4809 77.2512 65.3662 77.8646 64.2109 78.4232C61.8549 79.5618 59.3485 80.4928 56.7467 81.1635C56.1475 81.3139 55.5508 81.4523 54.9516 81.5765Z" fill="#AAF4EB"/>
<path d="M1.46575 35.3613C1.42756 35.2777 1.39176 35.199 1.35356 35.1178C1.32015 35.1608 1.28434 35.2037 1.24854 35.2467C1.27002 35.2992 1.27718 35.3756 1.31298 35.3971C1.3464 35.4162 1.41324 35.378 1.46575 35.3613Z" fill="#AAF4EB"/>
<path d="M0.372376 44.1431C0.374763 44.0071 0.381924 43.871 0.386698 43.7373C0.398633 43.4676 0.408181 43.1979 0.420116 42.9258C0.28883 42.9067 0.150382 42.8899 0.0143221 42.8708C0.0119351 43.1501 0.00716107 43.4318 0.00477405 43.7135L0 44.136L0.0143221 44.5561C0.131286 44.5537 0.255412 44.5513 0.374763 44.5513C0.372376 44.4153 0.372376 44.2792 0.372376 44.1431Z" fill="#AAF4EB"/>
<path d="M0.947754 52.7555C1.03846 53.1136 1.12917 53.4693 1.21749 53.8249C1.32013 53.7963 1.42516 53.7676 1.5278 53.7366C1.43948 53.3857 1.34877 53.03 1.26045 52.6768C1.15781 52.7054 1.05278 52.7317 0.947754 52.7555Z" fill="#AAF4EB"/>
<path d="M0.269775 48.7454C0.291259 48.9387 0.288872 49.1392 0.34616 49.3206C0.367643 49.3851 0.537122 49.3875 0.687505 49.4304C0.680343 49.2299 0.720923 49.0246 0.656473 48.8647C0.625442 48.7836 0.405836 48.7812 0.269775 48.7454Z" fill="#AAF4EB"/>
<path d="M18.9219 76.3656C18.9457 76.3202 18.9696 76.2773 18.9983 76.2295L17.9695 75.5445L17.4562 75.1983C17.2868 75.0814 17.1221 74.9549 16.955 74.8331C16.9454 74.8928 16.9359 74.9477 16.9287 75.005C17.091 75.122 17.251 75.2485 17.4181 75.3583L17.9169 75.6948C18.2535 75.9192 18.5877 76.1412 18.9219 76.3656Z" fill="#AAF4EB"/>
<path d="M23.4883 3.37286C23.4573 3.28692 23.4262 3.1986 23.3952 3.11267C23.1159 3.27021 22.8414 3.44447 22.5669 3.61156C22.6027 3.67362 22.6361 3.73807 22.6719 3.80252C22.944 3.65691 23.2162 3.50892 23.4883 3.37286Z" fill="#AAF4EB"/>
<path d="M28.5489 1.73296L28.8091 1.64226L29.074 1.56348L29.6039 1.40594C29.5825 1.33433 29.561 1.26033 29.5395 1.18872L28.9881 1.3033L28.7112 1.36297L28.4415 1.4322C28.0762 1.52768 27.7134 1.62316 27.3506 1.71864C27.4007 1.84515 27.4556 1.97405 27.5081 2.10056C27.8542 1.97883 28.2028 1.85709 28.5489 1.73296Z" fill="#AAF4EB"/>
<path d="M11.6295 12.5055L11.8229 12.3003L12.0234 12.1045L12.4268 11.713C12.3767 11.6581 12.3265 11.6032 12.2764 11.5483L11.8348 11.9112L11.6152 12.095L11.4028 12.2859C11.1187 12.5437 10.837 12.8015 10.553 13.0569C10.6532 13.1476 10.7559 13.2336 10.8585 13.3243C11.1163 13.0522 11.3717 12.7777 11.6295 12.5055Z" fill="#AAF4EB"/>
<path d="M17.1292 8.57892C17.4443 8.41183 17.7713 8.2328 18.1055 8.04423C18.442 7.86281 18.7977 7.68856 19.1534 7.49999C19.33 7.40689 19.509 7.31141 19.6905 7.21593C19.7812 7.16819 19.8695 7.11806 19.9626 7.07271C20.0557 7.02735 20.1464 6.982 20.2395 6.93903C20.6095 6.75762 20.9842 6.57382 21.3566 6.38763L21.6359 6.2468C21.729 6.20144 21.8245 6.16087 21.9199 6.11551C22.1085 6.02958 22.2971 5.94126 22.4857 5.85533C22.6718 5.76701 22.858 5.68107 23.0442 5.59514C23.2304 5.50921 23.4118 5.4185 23.598 5.34212C23.968 5.18457 24.3332 5.02703 24.6841 4.87187C24.8608 4.7931 25.035 4.71672 25.2045 4.64272C25.3787 4.57349 25.5482 4.50427 25.7153 4.43743C26.0495 4.30137 26.3693 4.1677 26.6701 4.03641C27.8875 3.54707 28.8328 3.12457 29.26 2.82142C28.9569 2.50633 28.6704 2.24137 28.3482 2.16021C28.0307 2.08622 27.675 2.19363 27.2454 2.60897C27.0855 2.76413 26.9088 2.90258 26.7202 3.0267C26.5317 3.15322 26.3359 3.27734 26.133 3.38714C25.7249 3.60675 25.2904 3.78578 24.8751 3.94809C24.4693 4.12473 24.0587 4.29421 23.6458 4.45653C23.4405 4.54008 23.2304 4.61646 23.0275 4.70239L22.4188 4.96974C22.013 5.14877 21.6025 5.32063 21.1991 5.5116C20.8004 5.7121 20.4042 5.915 20.0127 6.12983C18.1413 7.17535 16.3797 8.4357 14.7087 9.81301C15.1432 9.62921 15.6588 9.3738 16.2269 9.06349C16.5038 8.89878 16.8141 8.7484 17.1292 8.57892Z" fill="#AAF4EB"/>
<path d="M7.82714 16.3558C7.76269 16.2937 7.69585 16.2293 7.6314 16.1672C7.44999 16.4394 7.2829 16.7234 7.10864 17.0027C7.16593 17.0433 7.22561 17.0815 7.28528 17.122C7.4667 16.8666 7.64334 16.6064 7.82714 16.3558Z" fill="#AAF4EB"/>
<path d="M9.15894 71.0306C9.39525 71.3075 9.62918 71.582 9.86311 71.8565C9.94188 71.7825 10.023 71.7061 10.1018 71.6321C9.87027 71.36 9.63634 71.0855 9.4048 70.8134C9.32364 70.8874 9.24009 70.9614 9.15894 71.0306Z" fill="#AAF4EB"/>
<path d="M34.2442 83.4765C34.6381 83.5171 35.0343 83.5577 35.4306 83.5983C35.4306 83.5481 35.4353 83.4956 35.4401 83.4431L34.2251 83.319L33.6188 83.2521C33.4159 83.2283 33.2154 83.1925 33.0149 83.1638C33.034 83.2211 33.0459 83.276 33.0674 83.3309C33.2631 83.3596 33.4589 83.3954 33.657 83.4145L34.2442 83.4765Z" fill="#AAF4EB"/>
<path d="M14.6802 42.909C14.5657 42.9067 14.4511 42.8995 14.3317 42.8923C14.2911 43.0976 14.2458 43.3053 14.2004 43.5153C14.315 43.5177 14.4296 43.5201 14.5418 43.5225C14.5871 43.3196 14.6349 43.1143 14.6802 42.909Z" fill="#AAF4EB"/>
<path d="M1.83081 55.2786C1.87139 55.3144 1.91197 55.3789 1.95255 55.3812C1.98835 55.3812 2.03132 55.3168 2.0719 55.2786C2.00029 55.2213 1.93584 55.1688 1.86662 55.1139C1.85468 55.1664 1.84275 55.2237 1.83081 55.2786Z" fill="#AAF4EB"/>
</g>
<path d="M59 49H57.9915V48.9495C57.9915 43.8895 55.2875 39.4555 51.252 37H56.2775C56.624 37.595 57.262 38 58 38C59.1045 38 60 37.1045 60 36C60 34.8955 59.1045 34 58 34C57.2615 34 56.624 34.405 56.2775 35H47V34C47 33.448 46.552 33 46 33H42C41.448 33 41 33.448 41 34V35H31.7225C31.376 34.405 30.7384 34 30 34C28.8955 34 28 34.8955 28 36C28 37.1045 28.8955 38 30 38C30.7385 38 31.376 37.595 31.7225 37H36.7475C32.712 39.456 30.0085 43.8895 30.0085 48.9495V49H29C28.448 49 28 49.448 28 50V54C28 54.552 28.448 55 29 55H33C33.552 55 34 54.552 34 54V50C34 49.448 33.552 49 33 49H32.0085V48.9495C32.0085 43.373 35.8355 38.6785 41 37.3435V38C41 38.552 41.448 39 42 39H46C46.552 39 47 38.552 47 38V37.3435C52.1645 38.679 55.9915 43.3735 55.9915 48.9495V49H55C54.448 49 54 49.448 54 50V54C54 54.552 54.448 55 55 55H59C59.552 55 60 54.552 60 54V50C60 49.448 59.552 49 59 49ZM32 53H30V51H32V53ZM45 37H43V35H45V37ZM58 53H56V51H58V53Z" fill="black"/>
<defs>
<clipPath id="clip0_53_222">
<rect width="88" height="88" fill="white"/>
</clipPath>
</defs>
</svg>
