<svg width="70" height="77" viewBox="0 0 70 77" fill="none" xmlns="http://www.w3.org/2000/svg">
<path d="M0.000375431 74.0017L4.79372 70.9444L5.18744 76.7123L0.000375431 74.0017ZM46.5327 13.6604L46.1828 13.2917L46.5327 13.6604ZM4.3907 73.353C6.97567 72.9076 9.8366 71.8711 12.0165 70.1365C14.185 68.4111 15.6666 66.0101 15.5773 62.7922L16.5773 62.798C16.6769 66.3866 15.0066 69.0559 12.6556 70.9266C10.316 72.7882 7.28962 73.8736 4.59262 74.3383L4.3907 73.353ZM15.5773 62.7922C15.4256 57.3267 12.2267 53.5106 10.491 50.5501C10.0643 49.8223 9.71332 49.1201 9.55337 48.4563C9.38944 47.7761 9.42029 47.1082 9.79069 46.4971C10.1503 45.9039 10.7907 45.4304 11.7013 45.0331C12.6155 44.6342 13.8494 44.2917 15.4611 43.9898L15.6771 44.9725C14.0984 45.2683 12.9457 45.5942 12.1271 45.9514C11.3049 46.3102 10.8664 46.6804 10.651 47.0358C10.4464 47.3732 10.4063 47.7586 10.5255 48.2533C10.6487 48.7645 10.935 49.359 11.3499 50.0666C12.9804 52.8478 16.4162 56.9933 16.5773 62.798L15.5773 62.7922ZM15.4611 43.9898C21.8668 42.7897 27.9259 42.642 32.3932 42.1892C34.6494 41.9606 36.4798 41.657 37.798 41.1263C39.1028 40.6009 39.8225 39.8899 40.0235 38.8788L41.005 39.105C40.7166 40.5559 39.6686 41.4633 38.1984 42.0553C36.7416 42.6418 34.7896 42.9545 32.527 43.1838C27.9567 43.647 22.0327 43.7818 15.6771 44.9725L15.4611 43.9898ZM40.0235 38.8788C40.2309 37.8354 39.7941 36.7562 39.1121 35.3367C38.4511 33.9608 37.5975 32.3293 37.249 30.354C36.5391 26.3305 37.9356 21.0757 46.1828 13.2917L46.8825 14.0292C38.7322 21.7218 37.609 26.6706 38.234 30.2126C38.5529 32.02 39.3304 33.5117 40.0112 34.9289C40.6712 36.3025 41.287 37.6863 41.005 39.105L40.0235 38.8788ZM46.1828 13.2917C48.9013 10.7259 51.3039 8.27463 54.6543 6.039C58.0139 3.79728 62.3141 1.77807 68.8549 0.017083L69.1451 0.982918C62.6859 2.72193 58.4861 4.70269 55.2289 6.87608C51.9626 9.05555 49.6316 11.4345 46.8825 14.0292L46.1828 13.2917Z" fill="black"/>
</svg>
